<svg width="200" height="200" version="1.1" xmlns="http://www.w3.org/2000/svg" desc="Created with imagetracer.js version 1.2.6"><path fill="rgb(54,57,85)" stroke="rgb(54,57,85)" stroke-width="0" opacity="1" d="M 0 0 L 200 0 L 200 118 L 199 118 L 193.4 114.8 Q 193 113.7 194.1 114.1 L 194.1 113.1 L 193 108.4 L 193 106.4 L 192.2 104.3 L 191.4 104.1 L 192.2 103.7 L 191.2 103.1 Q 188.6 104.9 187.9 108.2 L 186.3 108.6 L 187.9 110.7 L 185.7 109 L 181.8 106.3 L 181.6 106.8 L 182.4 110.5 L 183.6 111.1 L 182.6 112.9 L 181.6 113.5 Q 182 114.9 180.9 114.5 L 181.3 111.5 L 180.5 108.8 L 180.5 104.5 L 176.4 100 L 175.2 100.4 L 168.6 106.6 L 163.3 109.6 L 163.3 119.3 L 163.9 119.5 L 165.4 120.3 L 168.9 120.7 L 169.5 121.3 Q 169.2 122.2 170.1 121.9 L 171.9 121.1 L 172.3 119.3 L 170.5 119.1 L 169.7 119.5 L 169.1 118 L 171.5 116.2 L 170.9 116 L 169.3 117.2 L 169.1 116.4 L 171.7 114.8 L 172.7 114.8 L 172.7 104.9 L 174 103.5 Q 175.4 103.9 175 106.1 Q 173.9 106.3 174.2 108 L 174.6 109.2 L 173 112.3 L 173.8 113.7 L 174.8 113.3 L 173.8 114.6 L 173.8 115.6 Q 175.3 115 175 116.2 L 176 117.6 Q 176.9 117.3 176.6 118.2 L 175 119.3 L 177.9 119.5 L 181.6 118.4 L 181.1 119.5 L 179.5 119.5 L 175.4 120.7 L 175 121.7 L 175.8 121.9 L 175.2 123 L 172.9 123 L 169.7 122.3 L 168.2 123.4 L 164.6 123.4 L 164.1 124 L 164.5 126.8 L 165 127.3 L 165.8 127.7 L 172.1 127.7 L 174.4 127 L 176.4 127 L 176.2 127.5 L 176.6 130.7 L 176.6 131.4 L 176.2 133.8 L 176.6 136.3 L 177.3 136.5 L 176.6 136.9 L 177.3 140.8 L 177.3 145.9 L 177.7 146.9 L 180.7 146.9 L 186.1 145.3 L 186.9 145.7 L 199.8 142.6 L 200 145.7 L 176 151.6 L 168.9 152.7 L 166.8 153.7 L 166.8 156.4 L 167.4 156.6 L 182.6 152.3 L 186.5 150.8 L 200 147.7 L 199.4 148.8 L 194.5 150.4 L 193.4 153.9 L 197.5 153.1 L 199.8 152 L 200 152.5 L 199.6 153.5 L 193.6 155.5 L 192.4 155.1 L 186.9 157 L 183 160.5 L 181.3 161.3 Q 180.7 162.9 183.4 162.1 L 191.6 159.4 Q 193.8 159.6 194.7 158.6 L 198.2 158.6 L 199.8 157.8 L 200 159.8 L 185 165.2 L 178.3 169.5 L 176.4 169.9 L 161.1 176.6 L 156.4 177.7 L 155.7 177.3 L 150.6 178.9 L 136.5 184.8 L 127.5 187.1 Q 127 186.1 126.4 187.5 L 114.3 189.8 L 109.6 189.8 L 109.2 190.2 L 104.9 190.2 L 104.5 190.6 L 89.3 190.6 L 88.1 189.8 L 86.3 190.2 L 86.1 189.5 L 85.7 189.8 L 82.2 189.8 L 81.8 189.5 L 79.3 189.5 Q 79.7 188.4 78.7 188.7 L 76.6 189.1 L 76.4 188.3 L 74.6 188.7 Q 75 187.6 74 187.9 L 72.7 188.3 L 72.5 187.5 L 70.7 187.9 L 70.5 187.1 L 68.9 187.5 L 68.9 186.7 L 67.4 187.1 Q 60.1 185.8 54.1 183.2 L 53.3 183.6 L 52.1 182 L 49 181.3 L 32.2 174.6 L 29.9 174.2 L 26 172.3 L 19.3 170.3 L 17.4 169.1 L 1.8 164.1 L 0.4 163.1 Q 0 161.8 1 162.1 L 9.2 165.2 L 10 165.2 Q 18.2 167.4 25.2 170.7 L 28.7 171.5 L 33.8 173.8 L 34.2 173 L 11.5 164.8 L 9.6 163.7 L 6.1 162.9 L 2.9 161.3 L 2.3 161.5 L 1.6 159.8 L 0.8 159.6 L 2.5 159.4 L 3.9 159.8 L 4.1 160.5 L 5.3 160.2 L 31.8 169.5 L 50.6 178.1 L 63.1 182.4 L 81.8 186.3 L 88.5 186.7 L 92 187.5 L 96.7 187.5 L 97.1 187.9 L 104.9 187.9 L 105.3 187.5 L 112.3 187.5 L 112.7 187.1 L 122.1 186.3 L 133.8 183.2 L 150.6 176.2 L 156.4 172.7 L 158 171.1 L 165 167.2 L 181.3 161.3 L 182.2 159.8 L 185.2 158 L 184.2 157.8 L 178.3 159.4 L 170.1 162.5 Q 150.8 173.6 128.7 182 L 118.6 184.4 L 110.4 184.4 Q 109.7 183.3 107.2 184 L 101.8 185.2 L 93.6 185.2 L 89.3 184 L 86.1 184 L 85.7 183.6 L 77.3 182.6 L 78.9 182.2 L 77.5 181.6 L 68.6 180.5 L 66.6 179.7 L 65.6 180.1 Q 66.1 179 65 179.3 L 64.5 179.5 Q 64.7 178.6 63.9 178.9 L 63.1 178.9 L 50.2 175 L 48.4 173.6 L 48 172.5 L 50 172.3 Q 49.7 170.1 51.2 169.3 L 50.2 168.4 L 46.5 167.2 L 46.5 170.9 L 47.3 172.1 L 45.9 173 L 39.6 169.9 L 34.2 168.4 L 24.8 164.5 L 4.1 157.8 L 0.4 155.7 L 1 154.3 L 3.3 155.5 Q 15.1 158.2 25.6 162.1 L 30.7 162.9 L 30.7 162.5 L 16.6 157.4 L 1.4 153.1 L 0 152.1 Q -0.3 149.4 0.4 148 L 2.3 148 L 2.3 147.5 L 2.7 147.5 Q 2.4 148.5 3.7 148 L 11.7 150 Q 11.4 147.3 12.5 145.5 L 12.9 133.6 L 10 133.6 L 9.4 133 L 9 131.4 L 12.5 129.9 Q 10.4 130.1 9.8 128.7 L 10.7 127.3 L 13.7 126 L 11.3 125.4 Q 10.9 122.9 13.1 122.3 L 14.5 121.7 L 12.1 120.7 L 14.1 117.8 L 11.7 117 L 12.1 116 L 14.1 114.6 L 15.2 113.1 L 15.2 111.9 Q 14.1 111.1 14.5 108.8 Q 15.3 108.3 14.3 107.8 L 10.4 109 L 8.4 109 L 7.2 108.6 L 6.4 109 L 5.7 109 L 2.3 110.7 L 1.2 113.1 L 1 115.6 L 0.8 104.9 L 0.4 104.5 L 0.4 88.1 L 0 87.7 L 0 0 Z M 122 21 L 122 22 L 121 22 L 121 23 L 123 24 Q 124 23 123 22 L 122 21 Z M 75 22 L 75 22 Q 74 22 74 24 Q 75 25 76 24 L 77 23 L 76 22 L 75 22 Z M 141 23 Q 140 23 140 25 Q 141 26 142 26 Q 143 25 143 24 Q 143 23 141 23 Z M 98 26 L 94 27 L 91 29 L 87 33 L 85 37 Q 86 39 85 40 L 85 44 L 87 48 Q 90 54 98 55 L 103 54 L 108 51 Q 111 48 112 43 L 112 38 Q 111 34 109 32 Q 106 27 98 26 Z M 67 28 L 67 29 L 67 29 L 67 30 L 69 30 Q 70 27 67 28 Z M 126 34 L 124 34 Q 122 35 123 37 L 135 37 L 136 37 L 141 37 L 141 37 L 145 37 L 146 37 L 149 37 L 149 37 L 156 37 L 156 37 Q 158 37 158 36 L 154 34 L 145 34 L 144 34 L 143 34 L 142 34 L 128 34 L 126 34 Z M 68 35 L 67 35 L 42 36 L 43 38 L 73 37 L 74 36 L 74 35 L 68 35 Z M 128 39 L 128 41 L 128 41 L 127 41 L 124 41 L 127 43 L 142 42 Q 141 41 141 42 L 135 42 L 135 41 L 131 41 L 131 42 L 129 41 L 129 41 Q 129 39 128 39 Z M 25 39 L 25 41 L 37 40 L 38 40 L 25 39 Z M 169 45 L 168 47 L 168 48 L 170 49 L 171 49 L 172 46 Q 171 45 169 45 Z M 143 55 L 141 56 L 141 58 L 141 58 L 180 58 L 180 59 L 182 58 Q 184 59 183 56 L 182 56 L 146 56 L 144 55 L 143 55 Z M 73 58 L 72 58 L 65 58 L 65 59 L 13 59 L 12 59 L 12 61 L 63 61 L 65 61 L 66 61 L 67 61 L 67 61 L 71 61 L 71 61 Q 73 60 74 61 L 76 61 Q 77 60 77 59 Q 76 57 73 58 Z M 50 67 Q 50 68 48 68 L 42 74 L 38 77 Q 35 78 35 82 L 37 81 L 38 81 L 49 81 L 50 82 L 55 82 L 55 81 L 56 82 L 60 82 L 61 82 L 61 84 L 63 84 L 71 84 Q 72 85 74 85 L 75 83 L 73 81 L 60 81 L 58 79 L 55 74 L 51 68 L 50 67 Z M 125 67 L 123 68 Q 121 72 117 75 L 114 78 Q 113 78 114 77 L 112 75 L 110 75 Q 106 79 104 84 L 106 84 L 117 84 L 117 84 L 118 84 L 119 84 L 120 83 L 120 83 Q 118 80 115 80 L 115 80 L 117 80 L 126 80 L 134 82 L 134 82 L 135 82 Q 136 83 135 83 L 136 84 L 152 84 L 152 84 L 153 84 L 188 84 L 191 85 L 189 82 L 151 82 L 151 83 L 145 78 Q 142 77 138 77 L 138 77 L 133 77 L 132 75 L 129 69 L 127 67 L 125 67 Z M 90 83 L 89 83 L 85 83 L 85 84 L 81 84 L 81 83 L 80 84 L 75 84 L 83 84 L 85 84 L 86 84 L 88 84 L 90 83 L 90 83 Z M 95 83 L 95 84 Q 97 83 97 84 L 102 84 L 103 83 L 95 83 Z M 92 85 L 87 88 L 77 94 L 62 107 Q 56 111 51 115 L 49 116 L 42 121 L 37 122 L 38 124 L 38 125 L 39 125 L 38 126 L 39 127 Q 40 126 40 127 L 38 127 Q 37 128 39 129 Q 40 128 39 129 L 40 130 Q 38 129 39 131 L 41 133 L 39 133 L 41 134 L 39 134 L 39 135 L 44 138 L 45 141 Q 43 142 40 142 L 46 151 L 48 144 L 45 143 L 47 143 L 48 140 L 50 136 L 49 135 L 48 136 L 48 136 L 49 134 L 48 134 L 51 124 L 52 123 L 54 127 L 55 133 L 53 134 L 55 137 L 54 138 L 56 140 L 54 140 L 56 142 Q 56 143 55 143 L 55 144 L 56 145 Q 57 146 55 146 L 56 147 L 56 149 L 57 152 L 57 153 L 58 154 L 57 156 L 59 157 L 59 158 L 132 158 L 133 158 L 133 158 L 136 152 L 140 139 L 140 139 L 135 143 L 134 142 L 137 140 L 140 137 L 140 136 L 137 137 L 136 137 L 139 135 Q 139 133 138 133 Q 140 131 141 129 L 138 129 L 139 128 L 137 127 Q 136 128 136 127 L 138 126 Q 139 125 139 126 L 140 125 Q 141 125 141 124 L 142 123 L 140 124 L 139 124 L 142 119 L 142 117 Q 135 115 129 111 L 128 110 L 127 109 L 126 108 L 127 107 L 129 109 L 136 104 L 137 103 L 137 103 Q 131 97 122 93 L 110 93 L 107 94 L 106 93 L 105 94 L 107 96 L 111 99 L 121 104 L 122 106 L 124 107 L 124 106 L 125 106 L 124 107 L 125 108 L 124 108 L 115 104 L 108 100 L 105 96 Q 100 90 92 85 Z M 148 95 L 146 98 L 146 99 L 146 100 Q 146 102 145 101 L 144 99 L 141 103 L 138 105 L 131 110 L 135 112 L 140 114 L 142 114 L 145 115 L 146 113 L 146 115 L 149 117 L 149 118 L 148 118 L 148 117 L 147 118 L 144 118 Q 144 120 145 121 L 145 122 Q 145 124 146 124 L 149 128 L 150 128 L 152 128 L 156 127 L 155 126 L 154 126 Q 154 125 154 126 L 155 125 L 157 124 L 156 122 L 156 122 L 151 121 L 148 121 L 149 120 L 156 120 L 156 120 L 158 117 L 158 116 Q 157 117 157 115 L 158 116 L 159 114 L 154 115 L 153 115 L 155 113 L 154 112 L 154 105 L 155 105 L 155 99 L 153 99 L 154 99 L 152 112 L 151 113 L 152 112 L 152 109 L 151 109 L 150 110 L 152 106 L 151 105 L 151 105 L 150 106 L 152 103 L 152 101 L 153 101 L 152 101 Q 151 100 152 100 L 152 99 L 150 97 L 148 95 Z M 50 100 L 49 100 L 49 101 Q 49 102 48 102 L 48 100 L 46 104 L 46 105 Q 44 104 45 106 Q 41 109 37 110 Q 37 112 36 113 L 36 113 L 37 115 L 36 118 L 38 120 L 52 112 L 53 111 L 60 105 Q 59 104 59 105 L 59 104 L 57 103 Q 58 102 57 102 L 57 102 L 56 100 L 54 100 Q 52 99 52 100 L 50 100 Z M 46 102 L 43 103 L 41 105 L 40 105 L 39 107 L 44 105 L 46 102 Q 46 101 46 102 Z M 157 104 L 158 105 L 156 106 L 158 107 L 159 106 L 159 105 L 159 104 L 157 104 Z M 36 106 L 36 107 L 36 108 L 36 109 L 37 108 L 36 108 Q 37 106 36 106 Z M 31 107 L 30 110 L 30 108 Q 30 107 29 108 L 28 107 L 21 107 L 20 108 L 20 108 L 19 113 L 20 112 Q 22 112 23 113 L 22 114 L 20 114 L 20 115 L 22 117 L 19 118 Q 20 119 20 121 L 20 121 Q 22 122 22 121 L 24 122 Q 26 121 27 122 L 28 122 L 30 121 L 31 121 L 31 115 Q 32 115 31 114 L 24 120 Q 23 119 24 118 Q 25 118 25 117 L 25 117 L 31 111 L 31 110 L 31 108 L 31 107 Z M 156 107 L 155 110 L 156 111 L 155 112 L 159 111 L 160 109 L 156 107 Z M 165 121 L 164 121 L 164 122 Q 166 122 167 121 L 165 121 Z M 27 123 L 27 124 L 27 124 L 22 126 Q 20 126 21 127 L 24 128 L 26 129 L 28 130 L 27 133 L 26 134 L 25 134 L 20 134 L 21 135 L 21 150 Q 21 151 23 151 L 24 150 L 28 141 L 25 141 L 24 140 L 25 139 Q 26 137 29 137 Q 30 136 29 136 L 30 132 Q 31 130 30 130 L 31 127 L 29 126 L 31 123 Q 30 123 27 123 Z M 156 127 L 153 129 L 146 129 L 148 133 L 148 135 Q 150 137 154 136 L 155 135 L 156 134 L 153 135 L 152 134 Q 151 133 153 134 Q 153 133 154 134 L 156 134 Q 157 132 154 133 L 154 133 L 157 128 L 156 127 Z M 174 128 L 170 129 L 167 129 L 167 130 L 165 130 L 165 132 L 169 135 L 165 135 L 165 135 L 169 136 L 170 138 Q 171 138 170 139 L 169 140 L 166 140 L 165 140 L 166 146 L 168 149 L 170 149 L 173 148 L 176 147 Q 175 146 175 144 L 175 143 L 175 138 Q 173 137 175 136 L 175 133 L 175 133 L 175 131 L 175 128 L 174 128 Z M 149 137 L 150 139 L 149 140 Q 148 140 149 141 L 153 139 L 154 139 L 155 138 L 149 137 Z M 156 140 L 153 143 Q 152 143 152 142 L 152 141 Q 150 141 149 142 L 151 150 L 154 154 L 158 153 L 159 151 L 158 151 Q 155 152 155 151 L 157 142 Q 158 140 156 140 Z M 193 151 L 192 151 L 191 152 L 190 153 L 191 152 L 189 152 L 184 153 L 182 156 Q 182 154 181 154 L 181 155 L 180 156 L 176 158 L 165 160 L 161 163 Q 160 162 161 164 Q 162 164 161 163 L 162 163 L 163 163 Q 165 163 164 161 L 165 161 L 166 162 L 181 157 L 186 156 L 191 154 L 193 153 L 194 152 Q 194 150 193 151 Z M 18 154 L 18 155 L 32 160 L 45 166 L 52 168 L 61 171 L 79 175 L 89 177 L 89 174 L 75 171 L 66 169 L 32 157 L 22 155 L 18 154 Z M 154 157 L 153 158 L 152 157 L 152 158 L 151 158 L 140 162 L 130 166 L 124 168 L 120 170 L 110 174 L 109 174 L 109 174 L 109 177 L 120 173 L 153 161 L 159 158 Q 158 157 158 157 L 157 157 L 155 157 L 154 157 Z M 135 157 L 133 159 L 131 160 L 116 160 L 115 160 L 105 160 L 105 160 L 65 160 L 65 159 L 60 159 L 61 162 L 63 164 L 78 167 L 88 169 L 94 170 L 99 171 L 102 171 L 106 171 L 106 172 L 109 171 L 117 167 L 133 160 L 136 158 Q 136 157 135 157 Z M 156 161 L 154 162 L 146 164 L 145 165 L 146 167 Q 146 171 147 172 Q 151 170 155 169 L 156 169 L 155 166 L 155 163 L 157 162 L 156 161 Z M 190 162 Q 180 164 171 168 L 165 171 L 162 173 Q 161 173 161 174 L 160 175 L 158 176 L 164 175 L 167 173 L 178 169 L 186 164 L 192 162 L 190 162 Z M 33 163 L 33 164 L 37 165 L 37 164 L 33 163 Z M 158 163 L 157 164 Q 157 166 158 166 L 160 165 Q 161 163 158 163 Z M 40 165 Q 39 166 39 167 Q 40 169 43 168 L 43 167 Q 42 165 40 165 Z M 144 165 L 130 171 L 130 173 L 132 174 L 131 175 L 131 178 L 132 179 L 135 178 L 145 173 L 145 171 L 144 169 Q 145 166 144 165 Z M 55 170 Q 54 172 54 175 Q 55 176 58 176 Q 59 175 59 172 L 58 171 L 55 170 Z M 127 171 L 110 178 L 111 183 Q 122 183 130 179 L 128 172 Q 129 171 127 171 Z M 64 173 Q 63 175 63 178 L 65 179 L 68 178 L 67 178 L 67 177 Q 67 175 67 174 L 64 173 Z M 70 175 L 70 179 Q 71 181 74 180 L 75 176 Q 73 175 70 175 Z M 40 176 L 42 177 L 43 177 L 49 180 L 49 179 L 40 176 Z M 104 176 L 102 178 Q 102 180 103 181 L 104 181 L 106 181 L 108 179 L 107 176 Q 107 175 104 176 Z M 76 176 Q 75 178 76 181 L 77 181 L 79 181 Q 80 180 80 178 L 79 177 L 76 176 Z M 98 177 L 96 178 Q 96 180 97 181 L 98 182 L 100 182 Q 101 180 101 178 Q 100 176 98 177 Z M 82 177 Q 81 178 81 181 Q 82 182 85 182 Q 85 181 85 178 L 82 177 Z M 93 178 L 91 179 Q 91 181 92 182 Q 95 182 95 181 Q 96 179 95 178 Q 95 177 93 178 Z M 89 178 L 89 179 L 89 182 L 89 182 L 89 178 Z "></path><path fill="rgb(54,57,85)" stroke="rgb(54,57,85)" stroke-width="0" opacity="1" d="M 88.5 104.3 L 89.8 104.7 L 90.2 105.7 L 90.6 111.1 L 90.2 111.1 L 89.3 108.6 L 87.5 109.8 L 87.5 110.5 Q 86.5 110.1 86.7 111.1 L 84.4 113.5 Q 83.1 117.3 80.3 119.5 L 80.1 118.9 L 82.4 113.5 L 85.5 110 L 88.5 104.3 Z "></path><path fill="rgb(54,57,85)" stroke="rgb(54,57,85)" stroke-width="0" opacity="1" d="M 0.2 108.2 L 0.4 113.9 L 0 113.9 L 0.2 108.2 Z "></path><path fill="rgb(54,57,85)" stroke="rgb(54,57,85)" stroke-width="0" opacity="1" d="M 79.5 112.1 L 79.7 114.3 L 76.8 119.9 Q 75.7 119.6 76.2 120.9 L 73.6 124.2 Q 72.8 124.5 73 123.6 L 79.5 112.1 Z "></path><path fill="rgb(54,57,85)" stroke="rgb(54,57,85)" stroke-width="0" opacity="1" d="M 185 114.1 L 184.4 115 L 183.8 116.4 L 183.6 115.4 L 184 114.5 L 185 114.1 Z "></path><path fill="rgb(54,57,85)" stroke="rgb(54,57,85)" stroke-width="0" opacity="1" d="M 10.4 117.2 Q 11.8 116.8 11.3 118 Q 8.3 118.3 6.3 120.1 L 7.4 120.5 L 0.4 121.9 L 1 119.9 L 2.1 120.7 L 10.4 117.2 Z "></path><path fill="rgb(54,57,85)" stroke="rgb(54,57,85)" stroke-width="0" opacity="1" d="M 182.2 120.3 L 183.2 120.9 L 182.8 121.7 L 184.4 122.5 L 183.6 124.4 L 184.8 124.8 L 183.8 126.2 L 184.4 126.4 L 183.2 127 Q 182.7 128.3 184.6 127.7 L 185.5 128.3 L 185.2 129.3 L 183.2 130.3 L 186.7 130.5 L 186.1 131.6 L 184 132.4 Q 184.5 133.6 183 133.2 L 182.2 133.6 L 181.4 133.6 L 180.1 133.4 L 181.3 132.6 L 178.5 131.1 Q 178.2 130.2 179.1 130.5 L 182.4 129.3 Q 182.9 128.3 181.8 128.5 L 179.7 127.1 L 182.4 125.6 Q 182.9 123.8 180.7 124.6 L 179.7 124.2 Q 179.2 123.2 180.3 123.4 L 182.8 122.5 L 181.6 120.9 L 182.2 120.3 Z "></path><path fill="rgb(54,57,85)" stroke="rgb(54,57,85)" stroke-width="0" opacity="1" d="M 174.8 123.4 Q 176.3 122.9 175.8 124.4 L 174.4 125 L 173.4 124.4 L 174.8 123.4 Z "></path><path fill="rgb(54,57,85)" stroke="rgb(54,57,85)" stroke-width="0" opacity="1" d="M 183.8 134.4 L 185.9 135 Q 184.8 136.1 182.4 135.5 Q 181.9 134.4 183.4 134.8 L 183.8 134.4 Z "></path><path fill="rgb(54,57,85)" stroke="rgb(54,57,85)" stroke-width="0" opacity="1" d="M 178.7 135.9 L 183.8 135.9 Q 184.2 135.9 184 137.7 L 184.4 138.9 L 185.2 140.4 L 185.5 143.2 L 185 143.8 L 181.4 144.1 L 180.9 142.8 L 182 137.3 Q 181.5 136.2 179.5 136.7 L 178.7 135.9 Z "></path><path fill="rgb(54,57,85)" stroke="rgb(54,57,85)" stroke-width="0" opacity="1" d="M 71.5 145.7 L 72.7 146.3 L 75.4 153.7 L 75.8 156.6 Q 73.6 157.5 69.3 157 Q 68.2 156.4 68.8 154.1 L 71.5 145.7 Z "></path><path fill="rgb(54,57,85)" stroke="rgb(54,57,85)" stroke-width="0" opacity="1" d="M 126.6 146.5 Q 127.6 146 127.3 147.1 L 130.1 152.9 L 130.5 156.4 L 129.9 157 L 125.2 157 L 123.4 156.1 L 126.6 146.5 Z "></path><path fill="rgb(54,57,85)" stroke="rgb(54,57,85)" stroke-width="0" opacity="1" d="M 151.4 165.2 Q 152.2 164.9 152 165.8 L 152.1 166.4 L 151.2 165.8 L 150.2 167.2 Q 149.3 167.5 149.6 166.6 L 149.4 166 L 150 166.2 L 150.2 165.6 Q 150.8 166.6 151.4 165.2 Z "></path><path fill="rgb(54,57,85)" stroke="rgb(54,57,85)" stroke-width="0" opacity="1" d="M 140.4 169.5 L 141 171.5 L 139.6 171.1 Q 139.2 172 138.7 170.9 L 138.9 170.3 L 139.3 171.1 L 139.5 169.9 L 140.4 169.5 Z "></path><path fill="rgb(54,57,85)" stroke="rgb(54,57,85)" stroke-width="0" opacity="1" d="M 137.3 171.1 L 138.3 171.3 L 137.9 172.3 L 136.9 172.7 L 135.9 172.5 L 136.5 171.5 L 137.3 171.1 Z "></path><path fill="rgb(54,57,85)" stroke="rgb(54,57,85)" stroke-width="0" opacity="1" d="M 133.4 171.9 L 135.2 172.3 L 135.2 173 Q 134.1 172.6 134.4 173.6 L 133.2 173.2 L 133 174.2 L 132.8 172.9 L 133.4 171.9 Z "></path><path fill="rgb(54,57,85)" stroke="rgb(54,57,85)" stroke-width="0" opacity="1" d="M 126 175 L 126.2 177.5 L 125 177.1 L 124.8 178.1 L 123.4 175.8 L 124.8 176.6 L 125 175.4 L 126 175 Z "></path><path fill="rgb(54,57,85)" stroke="rgb(54,57,85)" stroke-width="0" opacity="1" d="M 122.1 176.2 L 123.4 177.1 L 123 178.5 L 120.7 177.1 L 122.1 176.2 Z "></path><path fill="rgb(54,57,85)" stroke="rgb(54,57,85)" stroke-width="0" opacity="1" d="M 117.8 177.3 L 118.8 179.9 L 118.4 179.9 Q 117.2 178.9 117.8 177.3 Z "></path><path fill="rgb(54,57,85)" stroke="rgb(54,57,85)" stroke-width="0" opacity="1" d="M 112.3 178.5 L 113.3 179.1 Q 113 180.9 114.1 181.4 L 113.3 181.6 L 112.3 178.5 Z "></path><path fill="rgb(185,196,200)" stroke="rgb(185,196,200)" stroke-width="0" opacity="1" d="M 75.2 21.9 L 76.2 22.5 L 76.6 23.2 L 76.2 24.2 Q 74.7 24.6 74.2 23.6 Q 73.6 21.9 74.8 22.3 L 75.2 21.9 Z "></path><path fill="rgb(185,196,200)" stroke="rgb(185,196,200)" stroke-width="0" opacity="1" d="M 141.6 23 L 143 24 Q 143.2 25.6 142 25.8 L 140.2 25.4 L 140.6 23.4 L 141.6 23 Z "></path><path fill="rgb(185,196,200)" stroke="rgb(185,196,200)" stroke-width="0" opacity="1" d="M 125.6 34 L 127.5 34.4 L 141.6 34.4 L 142.8 34 L 143.9 34.4 L 145.1 34 L 154.5 34 L 157.8 36.1 Q 158.2 37.3 156.4 36.7 L 156.1 37.1 L 149 37.1 L 148.6 36.7 L 145.5 36.7 L 145.1 37.1 L 141.2 37.1 L 140.8 36.7 L 135.7 36.7 L 135.4 37.1 L 122.7 37.1 Q 122.3 34.9 124 34.4 L 125.6 34 Z "></path><path fill="rgb(185,196,200)" stroke="rgb(185,196,200)" stroke-width="0" opacity="1" d="M 67.8 34.8 L 73.6 34.8 L 73.8 35.7 L 72.9 37.1 L 42.6 37.5 L 41.8 35.7 L 67.4 35.2 L 67.8 34.8 Z "></path><path fill="rgb(185,196,200)" stroke="rgb(185,196,200)" stroke-width="0" opacity="1" d="M 24.6 39.5 L 35.7 39.5 L 36.3 40 L 25.2 40.6 L 24.6 39.5 Z "></path><path fill="rgb(185,196,200)" stroke="rgb(185,196,200)" stroke-width="0" opacity="1" d="M 124.8 41 Q 127.7 40.5 128.7 41.8 L 135.5 42 L 130.3 42.2 L 129.9 42.6 L 129.5 42.2 L 125.6 42.2 L 124.8 41 Z "></path><path fill="rgb(185,196,200)" stroke="rgb(185,196,200)" stroke-width="0" opacity="1" d="M 111.1 43.8 L 111.3 44.7 Q 110 49.5 106.4 52 L 101.4 54.3 L 96.3 54.3 Q 90.9 52.9 87.9 49 L 85.9 45.5 L 85.9 44.3 L 86.3 44.3 L 87.5 47.3 L 92.4 48.8 L 97.5 48.8 L 100.2 48 L 103.3 48 L 104.9 47.3 L 109.2 46.5 L 109.8 46.7 L 111.1 43.8 Z "></path><path fill="rgb(185,196,200)" stroke="rgb(185,196,200)" stroke-width="0" opacity="1" d="M 170.9 45.3 L 171.5 47.1 L 170.1 48.8 L 168.8 48.4 L 168.9 46.1 Q 169.5 47.1 170.1 45.7 L 170.9 45.3 Z "></path><path fill="rgb(185,196,200)" stroke="rgb(185,196,200)" stroke-width="0" opacity="1" d="M 142.8 55.5 L 143.6 55.5 L 145.5 55.9 L 182.2 55.9 L 182.8 56.4 Q 183.5 58.6 182.2 58.2 L 180.3 58.6 L 179.9 58.2 L 141.2 58.2 L 140.6 57.6 L 141 55.9 L 142.8 55.5 Z "></path><path fill="rgb(185,196,200)" stroke="rgb(185,196,200)" stroke-width="0" opacity="1" d="M 72.9 57.8 Q 75.9 57.1 76.6 58.8 Q 76.9 60.3 76 60.5 L 74 60.9 Q 73.3 59.9 70.9 60.5 L 70.5 60.9 L 67.4 60.9 L 66.6 60.5 L 65.8 60.9 L 64.6 60.5 L 63.5 60.9 L 11.9 60.9 L 11.7 59.4 L 13.1 59 L 64.6 58.6 L 65 58.2 L 72.5 58.2 L 72.9 57.8 Z "></path><path fill="rgb(185,196,200)" stroke="rgb(185,196,200)" stroke-width="0" opacity="1" d="M 123.6 67.2 Q 127.6 66.6 128.5 68.9 L 131.6 75.2 L 133 76.6 L 137.7 77.3 L 138.5 77.3 Q 142.4 76.7 144.7 77.7 L 151 82.8 L 151.4 82.4 L 189.3 82.4 L 190.6 85.2 L 187.7 84.4 L 152.5 84.4 L 152.1 84 L 151.8 84.4 L 135.9 84.4 L 135.2 83 Q 136 82.5 135 82 L 133.4 82.8 L 133.8 81.6 L 126 80.1 L 117 80.1 L 115 79.7 L 115 80.1 Q 118.4 80.4 119.9 82.6 L 120.3 83.4 L 118.9 84.4 L 118.2 84 L 117.4 84.4 L 117 84 L 106.4 84 L 104.3 83.6 Q 106.3 78.7 110.4 75.4 L 111.9 75.4 L 113.7 77.1 Q 113.4 78 114.3 77.7 L 118.4 74 L 123.6 67.2 Z "></path><path fill="rgb(185,196,200)" stroke="rgb(185,196,200)" stroke-width="0" opacity="1" d="M 47.9 67.6 L 51 68.8 L 53.5 71.3 L 57.8 79.1 L 60 81.3 L 72.9 81.3 L 75 83.4 L 74.4 84.8 Q 72 85.4 71.3 84.4 L 62.7 84.4 L 60.9 84 L 60.7 82.4 L 60 82.4 L 56.4 82 L 55.3 81.3 L 54.9 81.6 L 49.8 81.6 L 49.4 81.3 L 37.7 81.3 L 36.9 81.3 L 35.2 81.6 L 35.2 80.3 L 37.3 77 L 40.8 75.4 L 43 73.2 L 47.9 67.6 Z "></path><path fill="rgb(185,196,200)" stroke="rgb(185,196,200)" stroke-width="0" opacity="1" d="M 89.6 82.8 L 90.2 83 L 87.7 84.4 L 85.7 84 L 84.6 84.4 L 83.4 84 L 75.4 83.8 L 80.3 83.6 L 80.7 83.2 L 81.1 83.6 L 85 83.6 L 85.4 83.2 L 89.3 83.2 L 89.6 82.8 Z "></path><path fill="rgb(185,196,200)" stroke="rgb(185,196,200)" stroke-width="0" opacity="1" d="M 94.7 83.2 L 103.1 83.4 L 102.1 84 L 97.1 84 Q 96.6 83.1 94.7 83.6 L 94.7 83.2 Z "></path><path fill="rgb(185,196,200)" stroke="rgb(185,196,200)" stroke-width="0" opacity="1" d="M 91.2 85.5 Q 94.1 85.2 95.1 86.7 L 103.5 94.3 L 108 99.6 L 115 104.3 L 121.7 107 L 123.8 108.8 L 124.2 114.8 Q 120.8 114.6 119.1 112.3 Q 118.8 109.7 117 108.6 Q 112 107 109.2 103.1 L 109 103.7 L 110.2 106.4 L 110.5 110.4 Q 114.5 115.3 117.2 121.7 Q 116.7 122.8 116.2 121.9 Q 112.3 120.5 110.2 117.4 L 107.2 113.7 L 105.7 112.9 L 104.3 113.3 L 104.7 116.6 L 106.6 121.7 L 106.1 121.5 L 103.3 120.3 L 98.6 115.6 L 98.2 118.8 L 96.9 117 Q 97.2 114.5 96.3 113.3 L 96.1 117.6 L 92.6 114.6 L 91 110.4 L 90.6 105.7 L 89.3 104.3 Q 87.7 104.1 87.5 105.3 L 85.9 109.2 L 81.1 115.6 Q 79.7 115.2 80.1 113.1 L 80.5 112.3 L 80.5 111.5 L 79.9 110.5 L 76.8 110.5 L 76.2 111.1 L 77.1 111.3 L 79.7 110.9 Q 76.3 119.2 71.3 126.2 L 68.4 127.3 L 68.4 120.5 L 69.7 119.1 L 71.9 117.4 L 74.2 113.5 L 74.2 112.5 L 70.1 112.9 L 63.1 115.6 Q 62.6 114.7 62.1 115.8 L 61.5 117.6 L 61.1 116.4 L 59.8 117.8 L 56.4 124.2 L 55.5 122.5 L 55.1 117.8 L 56.8 116 L 62.7 112.9 L 65.2 110.4 L 64.3 109.8 L 57.2 113.7 L 53.5 114.1 Q 52.9 112.6 54.1 112.9 L 62.7 106.6 L 78.3 93.4 L 91.2 85.5 Z "></path><path fill="rgb(185,196,200)" stroke="rgb(185,196,200)" stroke-width="0" opacity="1" d="M 0.2 87.9 L 1 115.6 L 1.2 113.1 L 2.9 110.2 L 6.1 108.6 L 6.8 109 L 8 108.6 Q 8.5 109.5 10.4 109 Q 11.5 108 13.9 108.2 L 14.6 107.4 L 14.5 108.8 L 14.5 110.7 Q 15.5 111.3 15.2 113.1 L 12.7 116 Q 11.8 115.7 12.1 116.6 L 1.8 120.7 L 0.8 120.1 L 0.2 121.5 L 0 114.3 L 0.4 113.9 L 0.4 108.4 L 0.4 107.6 L 0 106.8 L 0.2 87.9 Z "></path><path fill="rgb(185,196,200)" stroke="rgb(185,196,200)" stroke-width="0" opacity="1" d="M 110 93 L 122.1 93 L 123.2 93.4 Q 130.9 97.2 136.5 103.1 L 138.9 101.6 L 138.1 102.7 L 128.7 109 L 125.6 106.6 L 111.1 99.2 L 107.4 95.9 L 105.5 93.6 L 106.1 93.4 L 107.2 93.8 L 110 93 Z "></path><path fill="rgb(185,196,200)" stroke="rgb(185,196,200)" stroke-width="0" opacity="1" d="M 147.9 95.3 L 149.6 96.7 L 151.6 99 L 151.6 99.8 Q 150.7 100.3 151.8 100.8 L 152.7 101 L 151.6 101.2 L 150.4 105.5 L 151.4 105.1 L 151.6 106.4 L 150 109.6 L 151 109 L 151.6 109.2 L 151.6 112.3 L 152.3 111.9 L 153.5 99.4 L 153.3 98.8 L 154.7 99 L 154.7 104.9 L 154.3 105.3 L 154.3 112.3 L 154.7 112.7 L 153.1 114.3 Q 152.6 116 154.9 115.2 L 159.2 113.7 L 159.4 114.3 L 159 115.2 L 157.2 114.8 L 154.7 115.8 L 154.7 116.6 Q 154.4 117.6 155.7 117.2 L 157.6 116.4 Q 158.9 117.1 157.4 117.8 L 156.1 119.5 Q 149.6 118.4 145.7 114.6 L 145.5 113.3 L 144.9 114.8 L 135 112.1 L 130.9 110 L 139.3 104.7 L 141.8 102.1 L 143.9 99.2 L 145.3 101.2 Q 146.5 101.7 146.1 100.2 L 146.5 98.6 L 146.5 97.9 L 147.9 95.3 Z "></path><path fill="rgb(185,196,200)" stroke="rgb(185,196,200)" stroke-width="0" opacity="1" d="M 50.2 99.6 L 51.8 100 Q 52.2 99.1 54.1 99.6 L 56.3 100.4 L 57 101.8 L 56.8 102.3 Q 57.9 102 57.4 103.3 L 59.6 105.1 L 60.4 103.9 L 60.5 104.5 L 50.6 112.9 L 45.1 115.6 L 38.5 119.9 L 35.9 118 L 35.9 116.8 Q 37 117.2 36.7 116.2 L 37.1 114.6 L 36.7 113.3 L 35.5 113.1 L 36.7 111.9 Q 36.4 110.4 37.3 110.2 L 43.6 107 L 45.3 105.3 L 47.3 102.1 L 47.3 101.2 L 48.8 102 L 49.2 100 L 50.2 99.6 Z "></path><path fill="rgb(185,196,200)" stroke="rgb(185,196,200)" stroke-width="0" opacity="1" d="M 176 100 L 179.7 103.3 L 180.5 104.5 L 180.5 108.8 L 181.3 112.7 Q 180.8 114.2 178.3 113.7 L 177 112.7 L 177.5 111.7 L 175 112.5 L 174.6 110 L 175 109.6 Q 174.4 106.6 175.4 105.3 L 174 103.5 L 172.7 104.5 Q 171.6 107.6 172.3 112.3 L 172.7 113.5 L 172.3 114.8 L 170.7 115.8 L 171.3 116 L 171.9 115.8 L 169.1 118 Q 169.6 119.8 168.6 120.3 L 164.6 119.9 L 163.3 118.9 L 163.3 109.6 L 163.9 109 Q 169.8 106.9 173.4 102.5 Q 173.1 101.7 174 102 L 176 100 Z "></path><path fill="rgb(185,196,200)" stroke="rgb(185,196,200)" stroke-width="0" opacity="1" d="M 45.5 101.6 Q 46.4 101.3 46.1 102.1 L 43.9 104.7 L 38.5 107.4 L 38.5 107 L 41.4 104.9 L 42.8 103.1 L 45.5 101.6 Z "></path><path fill="rgb(185,196,200)" stroke="rgb(185,196,200)" stroke-width="0" opacity="1" d="M 170.1 102.3 L 170.3 102.9 L 168.2 104.7 L 168 103.9 L 168.8 103.9 Q 168.3 102.9 169.3 103.1 L 170.1 102.3 Z "></path><path fill="rgb(185,196,200)" stroke="rgb(185,196,200)" stroke-width="0" opacity="1" d="M 191.2 103.1 L 192.2 103.7 L 191.4 104.1 L 192.2 104.3 L 193 106.4 L 193 108.4 L 193.8 110.4 L 194.1 114.1 L 194.9 114.3 L 194.3 114.5 L 193.6 114.1 L 192.4 114.5 L 190.4 113.3 L 190 113.7 L 185 113.7 L 182.6 116 Q 181.3 115.6 181.6 113.5 L 183.2 112.3 L 183.6 111.1 L 182.4 110.5 L 181.6 106.4 L 183.4 107.8 L 186.1 109.4 L 186.3 108.6 L 187.9 108.2 Q 188.6 104.9 191.2 103.1 Z "></path><path fill="rgb(185,196,200)" stroke="rgb(185,196,200)" stroke-width="0" opacity="1" d="M 156.8 104.3 L 159 104.3 L 159 105.3 L 158.6 106.3 L 157.6 106.6 L 156.3 106.1 L 157 105.7 L 156.8 105.1 L 157.6 105.5 L 157.2 104.7 L 156.8 104.3 Z "></path><path fill="rgb(185,196,200)" stroke="rgb(185,196,200)" stroke-width="0" opacity="1" d="M 35.7 105.9 Q 36.8 106.4 36.3 108.2 L 37.1 108.4 L 36.1 109 L 35.5 107.6 L 35.5 106.8 L 35.7 105.9 Z "></path><path fill="rgb(185,196,200)" stroke="rgb(185,196,200)" stroke-width="0" opacity="1" d="M 31.1 107 L 31.3 108.4 L 30.9 110.4 L 31.3 111.1 L 25.2 117.2 L 24.6 117.2 Q 25 118.2 24 118 Q 22.7 118.8 24.4 119.5 L 25.6 119.1 L 31.1 114.5 Q 32.1 114.9 31.3 115.4 Q 30.2 116.9 30.9 120.1 L 29.9 121.5 Q 27.6 122.5 23.6 121.9 L 22.5 121.1 Q 22 122 20.1 121.5 L 19.5 120.9 Q 19.8 118.8 19.1 118 L 21.9 117 L 19.5 115.4 L 20.1 114.5 L 22.5 113.7 L 23.4 112.7 Q 22.4 111.8 20.1 112.1 L 19.1 112.5 L 19.5 108.4 L 19.1 107.6 L 19.5 107.6 L 20.1 108.6 L 20.9 107.4 L 27.5 107.4 L 29.1 108.2 Q 29.6 107.3 30.1 108.4 L 30.3 110.2 L 31.1 107 Z "></path><path fill="rgb(185,196,200)" stroke="rgb(185,196,200)" stroke-width="0" opacity="1" d="M 156.3 107.4 L 159.8 108.8 L 158.8 110.5 L 155.3 112.5 L 155.5 111.9 L 155.9 110.7 L 155.5 110 L 156.3 107.4 Z "></path><path fill="rgb(185,196,200)" stroke="rgb(185,196,200)" stroke-width="0" opacity="1" d="M 8.8 118.8 Q 10.7 118.2 10.2 119.5 L 7.2 119.9 L 7.2 119.5 L 8.8 118.8 Z "></path><path fill="rgb(185,196,200)" stroke="rgb(185,196,200)" stroke-width="0" opacity="1" d="M 0.2 143.4 Q 0.9 144.6 1.6 143.9 L 1.6 144.5 L 2.3 144.7 L 2.3 147.7 L 0.4 147.7 L 0.4 148.6 L 0 148.6 L 0.2 143.4 Z "></path><path fill="rgb(185,196,200)" stroke="rgb(185,196,200)" stroke-width="0" opacity="1" d="M 199 145.7 Q 200.7 145.2 200 147.1 L 198.2 148 L 187.7 150.4 L 167.4 156.6 Q 166.2 156.1 166.8 153.7 L 168.9 152.7 L 184.6 149.6 L 199 145.7 Z "></path><path fill="rgb(185,196,200)" stroke="rgb(185,196,200)" stroke-width="0" opacity="1" d="M 199.4 148.8 L 200 149 L 200 152 Q 197.6 153.4 193.8 153.5 L 194.5 150.4 L 199.4 148.8 Z "></path><path fill="rgb(185,196,200)" stroke="rgb(185,196,200)" stroke-width="0" opacity="1" d="M 192.8 150.8 L 193.8 151.4 L 193.4 152.7 L 190.4 153.5 L 189.8 153.3 L 189.3 154.7 L 184.2 156.6 L 181.4 157 L 176.4 159 L 165.8 161.7 L 164.6 160.9 Q 163.7 161.4 164.1 162.9 L 162.3 163.3 L 161.5 162.9 L 160.5 163.5 Q 160.1 162.2 161.1 162.5 L 165 160.2 L 169.7 159 L 170.5 159.4 L 179.5 156.6 L 180.9 155.9 L 181.1 153.5 Q 182.2 154.2 181.8 156.3 L 183.2 153.5 L 187.7 152 L 190.4 151.6 L 190.2 152.1 L 190.4 153.1 L 191.6 151.2 L 192.8 150.8 Z "></path><path fill="rgb(185,196,200)" stroke="rgb(185,196,200)" stroke-width="0" opacity="1" d="M 0.2 152.7 L 6.8 155.1 L 9.6 155.5 L 11.9 156.6 L 17 157.8 L 22.9 160.2 L 25.6 160.5 L 30.5 162.7 L 29.1 162.9 L 22.9 160.5 L 0.4 154.3 L 0.2 152.7 Z "></path><path fill="rgb(185,196,200)" stroke="rgb(185,196,200)" stroke-width="0" opacity="1" d="M 199.8 153.1 L 200 157.8 L 191.2 159.4 Q 187 161.5 181.6 162.1 L 182.2 160.9 L 186.5 157.4 L 193.2 155.1 L 193.9 155.5 L 199 153.9 L 199.8 153.1 Z "></path><path fill="rgb(185,196,200)" stroke="rgb(185,196,200)" stroke-width="0" opacity="1" d="M 18.4 154.3 L 33 157.8 L 65.8 169.1 L 76.8 171.9 L 88.5 173.8 L 89.5 174.4 L 88.5 176.6 L 75.2 174.6 L 59.6 170.7 L 53.3 168 L 44.3 165.2 L 34.2 160.5 L 21.7 156.3 L 20.5 156.3 L 18.4 154.9 L 18.4 154.3 Z "></path><path fill="rgb(185,196,200)" stroke="rgb(185,196,200)" stroke-width="0" opacity="1" d="M 0.2 154.7 L 0.4 156.6 L 24.6 165 L 22.7 165.4 L 27 166.8 Q 27.4 165.6 26 166 L 25 165.4 L 26 165.2 L 30.3 167.2 L 40.4 170.3 L 44.3 172.7 L 46.3 173 L 47.3 171.7 L 46.5 170.5 L 46.9 169.7 L 46.5 167.2 L 50.8 168.9 L 50 170.5 L 50 172.3 L 48 172.5 L 48.4 173.2 Q 47.6 173.7 48.6 174.2 L 59.2 178.1 L 70.1 181.3 L 71.7 180.9 L 71.7 181.6 L 73.6 181.3 L 73.6 182 L 74.6 181.8 L 74.4 181.3 L 76.2 181.8 L 75 182.2 L 79.9 183.2 L 85.7 183.6 L 86.1 184 L 89.3 184 L 93.2 185.2 L 102.1 185.2 L 107.2 184 L 109.6 184 L 112.7 184.8 L 113.1 184.4 L 118.6 184.4 L 118.9 184 L 123.6 183.6 L 131.1 181.3 L 150.2 173 L 171.3 162.1 L 184.6 157.8 L 184.2 158.6 L 180.3 161.7 L 166.6 166.4 L 158.4 170.7 L 152.5 175 L 133.8 183.2 L 126 185.5 L 119.3 186.3 L 118.9 186.7 L 111.9 187.1 L 111.5 187.5 L 105.3 187.5 L 104.9 187.9 L 97.1 187.9 L 96.7 187.5 L 92 187.5 L 91.6 187.1 L 81.8 186.3 L 79.5 185.5 L 75.2 185.2 L 59.6 181.3 L 47.1 176.6 L 26.8 167.2 L 0.4 158.6 L 0.8 161.3 L 4.5 162.1 L 9.8 164.3 L 8.8 164.8 L 0.4 162.1 Q 0 163.6 1 164.1 L 16.6 169.1 L 36.5 177 L 42 178.5 L 50.2 181.6 L 53.3 184 L 54.9 184 L 62.7 186.7 L 79.5 190.2 L 86.5 190.6 L 86.9 191 L 92 191 L 92.4 191.4 L 101 191.4 L 101.4 191 L 108 191 L 108.4 190.6 L 116.2 190.2 L 129.5 187.5 L 137.3 185.2 L 152.1 179.3 L 162.7 176.2 L 176.8 169.9 L 180.9 168.9 L 180.1 168.6 L 186.1 164.8 L 200 159.8 L 200 199.8 L 199.8 200 L 0 200 L 0.2 154.7 Z "></path><path fill="rgb(185,196,200)" stroke="rgb(185,196,200)" stroke-width="0" opacity="1" d="M 153.7 157.4 L 156.6 158.4 L 151.8 160.9 L 144.3 163.3 L 131.4 168.8 L 117 173.8 L 109.4 177.3 L 108.6 174.4 L 109.2 173.8 L 110.4 173.8 L 120.1 170.3 L 140.8 161.3 L 153.7 157.4 Z "></path><path fill="rgb(185,196,200)" stroke="rgb(185,196,200)" stroke-width="0" opacity="1" d="M 190.4 161.7 L 191.4 161.9 Q 184 163.6 179.1 168 L 160 175.8 L 159.8 175.2 Q 163.6 171.4 168.9 169.1 L 181.8 164.1 L 190.4 161.7 Z "></path><path fill="rgb(185,196,200)" stroke="rgb(185,196,200)" stroke-width="0" opacity="1" d="M 152.9 162.5 Q 153.8 162.8 153.5 164.3 L 152.1 165.2 Q 151.6 164.3 151 165.6 Q 149.7 165.2 150 166.2 L 149.4 166 L 148.8 166.2 L 149.2 167 L 148.8 167 L 148.6 166.4 Q 147.5 167 148.6 167.6 L 154.3 165.6 L 154.5 164.5 L 155.9 168.8 L 154.9 168.4 L 146.9 171.9 L 146.5 167 L 145.3 165 L 147.1 164.1 L 151.4 163.3 L 152.9 162.5 Z "></path><path fill="rgb(185,196,200)" stroke="rgb(185,196,200)" stroke-width="0" opacity="1" d="M 32.6 163.3 L 37.1 164.6 L 35.7 164.8 L 32.6 163.7 L 32.6 163.3 Z "></path><path fill="rgb(185,196,200)" stroke="rgb(185,196,200)" stroke-width="0" opacity="1" d="M 63.9 163.3 L 76 165.6 L 83 167.6 L 90 168.4 L 92 169.1 L 96.7 169.5 L 101.4 170.7 L 106.8 171.1 L 108.4 170.7 L 108 171.5 L 102.5 171.5 L 97.1 170.3 L 94.7 170.3 L 91.2 169.1 L 82.6 168 L 69.7 165.2 L 68.2 164.5 L 63.9 163.7 L 63.9 163.3 Z "></path><path fill="rgb(185,196,200)" stroke="rgb(185,196,200)" stroke-width="0" opacity="1" d="M 158.4 163.3 L 159.8 163.9 Q 160.1 165.3 159.2 165.6 Q 157.1 166.4 157.4 165 L 157.4 164.3 Q 157.1 163.4 158 163.7 L 158.4 163.3 Z "></path><path fill="rgb(185,196,200)" stroke="rgb(185,196,200)" stroke-width="0" opacity="1" d="M 10.4 164.5 L 12.1 164.8 Q 11.7 165.9 12.7 165.6 L 12.7 166 L 10.4 164.8 L 10.4 164.5 Z "></path><path fill="rgb(185,196,200)" stroke="rgb(185,196,200)" stroke-width="0" opacity="1" d="M 39.6 165.2 L 43 166.4 L 43.4 168.4 Q 40.5 168.7 39.1 167 Q 38.8 165.5 39.6 165.2 Z "></path><path fill="rgb(185,196,200)" stroke="rgb(185,196,200)" stroke-width="0" opacity="1" d="M 142.8 165.6 Q 144.6 165.1 143.8 167.4 L 144.9 170.9 L 144.9 172.9 L 143.2 174.2 L 131.6 178.5 L 130.9 175.2 L 132 173.4 Q 130 174.3 130.5 172.5 L 129.7 170.9 L 142.8 165.6 Z M 140 170 L 139 170 Q 138 170 139 171 Q 139 173 140 171 L 141 171 Q 141 170 140 170 Z M 138 171 L 136 172 Q 135 173 136 173 L 137 172 L 137 172 L 137 173 L 138 172 Q 139 171 138 171 Z M 133 172 Q 132 172 133 174 L 133 174 Q 133 173 134 173 L 134 174 Q 134 173 135 173 L 135 172 L 133 172 Z "></path><path fill="rgb(185,196,200)" stroke="rgb(185,196,200)" stroke-width="0" opacity="1" d="M 54.7 170.7 L 55.7 170.7 L 58.6 172.5 L 57.8 175.8 Q 55.5 176.1 54.3 174.8 Q 54 172.1 54.7 170.7 Z "></path><path fill="rgb(185,196,200)" stroke="rgb(185,196,200)" stroke-width="0" opacity="1" d="M 127.5 171.5 Q 128.7 171.1 128.1 172.9 L 129.7 179.5 Q 121.8 183.2 110.5 183.2 L 110.2 178.7 L 115.8 175.8 L 127.5 171.5 Z M 126 175 L 125 175 L 125 177 L 125 176 Q 123 175 123 177 L 125 178 L 125 178 L 125 177 L 127 178 L 126 175 Z M 121 176 L 121 177 L 119 177 L 121 179 L 122 178 L 123 179 L 123 177 Q 123 176 121 176 Z M 118 177 L 117 178 L 118 179 L 119 180 L 118 179 Q 119 177 118 177 Z M 112 179 L 113 182 L 114 181 L 113 179 L 112 179 Z "></path><path fill="rgb(185,196,200)" stroke="rgb(185,196,200)" stroke-width="0" opacity="1" d="M 63.7 173.4 L 66.8 173.8 L 67.2 176.8 L 66.8 177.5 L 67.2 178.5 L 63.9 178.1 L 63.3 177.5 L 63.7 173.4 Z "></path><path fill="rgb(185,196,200)" stroke="rgb(185,196,200)" stroke-width="0" opacity="1" d="M 70.7 175 L 74.6 176.4 L 74.4 178.1 L 74 177.3 L 73.4 180.5 L 70.3 179.7 Q 69.8 176.5 70.7 175 Z "></path><path fill="rgb(185,196,200)" stroke="rgb(185,196,200)" stroke-width="0" opacity="1" d="M 104.9 175.8 Q 107.4 175.4 107.8 177.1 Q 108.4 179.9 106.8 180.5 L 104.5 181.3 L 102.7 179.9 L 102.3 177.9 L 103.7 176.2 L 104.9 175.8 Z "></path><path fill="rgb(185,196,200)" stroke="rgb(185,196,200)" stroke-width="0" opacity="1" d="M 76.2 176.6 Q 78.3 176.1 79.3 177.1 L 79.3 177.9 Q 79.6 180.6 77.9 181.3 L 75.8 180.3 L 76.2 176.6 Z "></path><path fill="rgb(185,196,200)" stroke="rgb(185,196,200)" stroke-width="0" opacity="1" d="M 98.2 176.6 L 100.4 177 Q 101.1 178 100.8 180.7 Q 100.3 182.1 97.9 181.6 Q 96.2 180.8 96.5 177.9 L 98.2 176.6 Z "></path><path fill="rgb(185,196,200)" stroke="rgb(185,196,200)" stroke-width="0" opacity="1" d="M 81.8 177.3 L 85.2 178.1 Q 85.8 180.9 84.2 181.6 Q 82 181.8 81.3 180.7 Q 80.8 178.3 81.8 177.3 Z "></path><path fill="rgb(185,196,200)" stroke="rgb(185,196,200)" stroke-width="0" opacity="1" d="M 45.5 177.7 L 49.2 179.1 L 48.6 179.3 L 45.5 178.1 L 45.5 177.7 Z "></path><path fill="rgb(185,196,200)" stroke="rgb(185,196,200)" stroke-width="0" opacity="1" d="M 93.2 177.7 Q 95.8 176.9 94.9 179.5 L 95.3 180.3 L 94.9 181.6 Q 92.2 182.3 91.4 180.7 Q 91.2 178.7 92.4 178.1 L 93.2 177.7 Z "></path><path fill="rgb(185,196,200)" stroke="rgb(185,196,200)" stroke-width="0" opacity="1" d="M 89.3 178.5 L 89.5 181.8 L 88.7 181.4 Q 88.1 179.1 89.3 178.5 Z "></path><path fill="rgb(222,119,79)" stroke="rgb(222,119,79)" stroke-width="0" opacity="1" d="M 98.2 26.2 Q 106 26.8 109.4 31.8 Q 111.4 34.1 112.1 37.7 L 112.1 43.2 L 110.7 46.9 L 110.5 46.3 L 110.9 45.1 L 110.5 45.1 L 109.6 46.9 L 108.8 46.5 L 103.3 48 L 100.2 48 L 97.5 48.8 L 92.4 48.8 L 87.5 47.3 L 86.1 44.1 L 85.7 44.9 L 85.2 43.6 L 84.8 39.6 Q 85.6 39.2 85.2 37.3 L 87.1 32.6 L 91.2 28.5 L 94.3 27 L 98.2 26.2 Z "></path><path fill="rgb(222,119,79)" stroke="rgb(222,119,79)" stroke-width="0" opacity="1" d="M 67.2 28.1 Q 69.7 27.3 68.8 30.1 L 67.2 30.1 L 67.2 29.5 L 67.2 28.7 L 67.2 28.1 Z "></path><path fill="rgb(222,119,79)" stroke="rgb(222,119,79)" stroke-width="0" opacity="1" d="M 128.3 39.1 Q 129.2 39.4 128.9 40.8 L 128.7 41.4 L 130.1 41.6 L 128.7 41.8 L 127.3 40.8 L 128.1 40.6 L 128.3 39.1 Z "></path><path fill="rgb(222,119,79)" stroke="rgb(222,119,79)" stroke-width="0" opacity="1" d="M 131.4 41.4 L 135.2 41.6 L 131.4 41.8 L 131.4 41.4 Z "></path><path fill="rgb(222,119,79)" stroke="rgb(222,119,79)" stroke-width="0" opacity="1" d="M 141.2 41.4 L 141.6 42.2 L 135.5 42 L 140.8 41.8 L 141.2 41.4 Z "></path><path fill="rgb(222,119,79)" stroke="rgb(222,119,79)" stroke-width="0" opacity="1" d="M 169.3 44.9 Q 171.5 44.5 171.9 45.9 L 171.7 46.9 L 170.9 45.3 L 169.3 46.5 L 168.8 46.3 L 168.6 48 L 168 46.7 L 169.3 44.9 Z "></path><path fill="rgb(222,119,79)" stroke="rgb(222,119,79)" stroke-width="0" opacity="1" d="M 49.8 66.8 L 51.2 67.8 L 52.7 70.1 L 51 68.8 L 48.4 67.8 L 49.8 66.8 Z "></path><path fill="rgb(222,119,79)" stroke="rgb(222,119,79)" stroke-width="0" opacity="1" d="M 103.7 94.5 L 105.3 96.5 L 103.7 94.5 Z "></path><path fill="rgb(222,119,79)" stroke="rgb(222,119,79)" stroke-width="0" opacity="1" d="M 173.2 102.3 L 171.7 104.3 L 173.2 102.3 Z "></path><path fill="rgb(222,119,79)" stroke="rgb(222,119,79)" stroke-width="0" opacity="1" d="M 113.5 102.7 L 118.8 105.7 L 118.2 105.9 L 113.9 103.5 L 113.5 102.7 Z "></path><path fill="rgb(222,119,79)" stroke="rgb(222,119,79)" stroke-width="0" opacity="1" d="M 109.2 103.1 L 113.5 107 L 117 108.6 L 118.4 110 Q 118.7 112.5 120.5 113.7 L 122.9 114.8 L 124.2 114.8 L 123.8 108.8 L 122.9 107.8 L 121.9 107.2 L 122.5 107.4 L 124.4 108.2 L 125.4 107.6 L 121.9 105.9 L 121.5 104.9 L 122.5 105.5 L 126 107 L 127.3 108.4 L 125.8 107.6 L 126.8 109 L 128.1 110 L 129.1 111.3 Q 135.1 114.8 142.2 116.8 L 141.8 118.9 L 139.1 124.4 L 139.6 124.2 L 141.6 123.4 L 141 124.4 Q 141.3 125.3 140.4 125 L 139.3 125.8 Q 138.7 124.8 138.1 126.2 L 135.9 127.1 Q 136.4 128.2 136.9 127.3 L 138.9 127 L 138.3 127.9 L 137.9 128.7 L 140.6 128.9 Q 140 131.5 137.9 133 Q 139.1 133.4 138.7 135.4 L 135.9 136.5 L 137.3 137.1 L 140 136.3 L 139.6 137.1 L 136.7 139.6 L 134.4 142.4 L 135.4 142.6 L 139.6 138.7 L 139.8 139.3 L 136.3 151.8 L 133.4 157.8 L 132.6 158.2 L 132.2 157.8 L 59.2 157.8 L 58.6 157.2 L 57.4 155.7 L 57.8 154.5 L 57 153.3 L 57 151.8 L 55.9 148.6 L 56.3 147.5 L 55.5 145.7 Q 56.5 146.1 56.3 145.1 L 54.7 144.1 L 55.3 143 Q 56.2 143.3 55.9 142.4 L 54.3 140.2 L 55.9 140 L 53.9 137.7 L 55.1 137.3 L 53.1 133.8 L 55.1 133.2 L 53.9 126.8 L 51.8 123 L 50.8 123.6 L 48 133.6 L 48.8 133.8 L 47.7 135.7 L 48.4 135.9 L 48.6 135.2 L 49.6 135.5 L 48.4 140 L 47.1 142.6 L 45.3 143.2 L 48 143.9 L 45.5 150.8 L 45.7 150.2 L 45.5 149.6 L 44.9 149.8 Q 43.2 145.1 40.2 141.6 Q 43.2 141.8 44.5 141 L 43.6 138.3 L 38.7 135 L 39.1 134 L 41.4 133.8 L 39.5 133 L 41 132.6 L 38.7 131.1 Q 38 129.2 39.6 129.7 L 39.5 129.1 Q 39.7 128.2 38.9 128.5 Q 37.1 127.7 38.5 127 L 39.8 127.3 Q 40.3 126.3 39.3 126.6 L 37.9 125.6 L 39.5 125.2 L 38.3 124.6 L 38.3 123.6 L 37.1 121.9 L 41.6 120.7 L 53.5 113.3 Q 53 114.8 55.7 114.1 L 64.6 109.8 L 65.2 110.4 L 62.7 112.9 L 56.8 116 L 55.1 117.8 L 55.5 122.5 L 56.4 124.2 Q 58.1 119.6 61.1 116.4 L 61.5 117.6 L 62.7 115.2 L 63.9 115.6 L 70.1 112.9 L 74.2 112.5 Q 73.4 116.7 70.1 119.1 L 68.4 120.5 L 68.4 127.1 L 69.3 127.3 L 72.3 125.2 L 72.9 123.8 L 73.6 124.2 Q 75.9 122.9 76.2 119.9 L 77.3 119.3 L 79.3 115.4 L 79.7 112.3 L 79.7 111.5 Q 79.9 110.4 77.5 110.9 L 76.4 111.3 L 76.8 110.5 L 79.9 110.5 L 80.5 111.1 L 80.1 111.9 L 80.5 112.7 L 80.1 114.6 Q 80.9 116.1 81.6 115.4 L 80.1 119.3 L 82 117.8 L 84.4 113.5 L 86.7 110.5 L 87.5 110.5 Q 87.1 109.5 88.1 109.8 L 89.5 108.8 L 90.4 111.3 L 90.6 108.8 L 89.8 105.3 L 90.6 105.7 L 91 110.4 L 92.2 113.9 L 95.5 117.6 L 96.1 117.4 L 96.1 113.5 L 96.5 113.5 L 96.9 117 L 98.2 118.8 L 98.6 115.6 Q 101.4 119.9 106.4 121.9 L 106.6 120.9 Q 104.4 117.9 104.3 113.3 L 105.7 112.9 L 109 115.4 L 113.1 120.3 L 116.6 122.3 Q 117.7 121.8 116.8 121.3 Q 114.5 115 110.5 110.4 L 110.2 106.4 L 109.2 103.1 Z M 71 146 L 69 154 Q 68 156 69 157 Q 74 158 76 157 L 75 154 L 73 146 L 71 146 Z M 127 146 L 123 156 L 125 157 L 130 157 L 130 156 L 130 153 L 127 147 Q 128 146 127 146 Z "></path><path fill="rgb(222,119,79)" stroke="rgb(222,119,79)" stroke-width="0" opacity="1" d="M 172.5 105.9 L 172.7 112.3 L 172.3 112.3 L 172.5 105.9 Z "></path><path fill="rgb(222,119,79)" stroke="rgb(222,119,79)" stroke-width="0" opacity="1" d="M 174.8 106.3 L 175 109.6 L 174.6 110.4 L 175 112.5 L 176.4 112.1 L 177 112.3 L 177.1 111.7 L 177.3 112.3 Q 176.5 112.8 177.5 113.3 L 180.3 113.7 L 180.9 113.5 L 180.9 114.5 Q 181.9 114 181.6 115 L 182.6 116 L 184 115 L 183.6 116.2 L 184 116.2 L 184.8 114.6 Q 183.9 114.2 185 113.7 L 190 113.7 L 190.4 113.3 L 199 118 L 200 118 L 200 142.4 L 199.4 143 L 193.9 143.8 L 192.8 144.5 L 186.5 145.7 L 185.7 145.7 L 182.2 146.1 L 180.7 146.9 L 177.7 146.9 L 177.3 145.9 L 177.3 140.8 L 176.6 136.9 L 177.3 136.5 L 176.6 136.3 L 176.2 132.6 L 176.6 131.4 L 176.6 130.7 L 176.2 127.5 L 176.4 127 L 174.4 127 L 172.1 127.7 L 165.8 127.7 L 164.5 126.8 L 164.1 124 L 164.6 123.4 L 168.2 123.4 L 170.5 122.3 L 172.9 123 L 175.2 123 L 175.8 121.9 L 175 121.7 L 175.4 120.7 L 179.5 119.5 L 181.1 119.5 L 181.6 118.9 Q 181.9 118.1 181.1 118.4 L 177.9 119.5 L 175.2 119.5 L 175.6 118.8 L 176.6 118.2 Q 176.9 117.3 176 117.6 L 175 115.6 Q 173.4 116.3 173.8 114.6 L 174.4 113.7 Q 173.5 114 173.8 113.1 Q 172.5 112.5 173.4 111.9 L 174.6 108.4 L 174.2 106.8 L 174.8 106.3 Z M 182 120 L 182 121 L 183 122 L 180 123 Q 179 123 180 124 L 181 125 Q 183 124 182 126 L 180 127 L 182 129 Q 183 128 182 129 L 179 130 Q 178 130 179 131 L 181 133 L 180 133 L 181 134 L 182 134 L 183 133 Q 184 134 184 132 L 185 132 L 187 131 L 187 130 L 184 130 L 184 130 L 185 129 L 186 128 L 185 128 Q 183 128 183 127 L 184 126 L 184 126 L 185 125 L 184 124 L 184 122 L 183 122 L 183 121 L 182 120 Z M 175 123 L 173 124 L 174 125 L 176 124 Q 176 123 175 123 Z M 184 134 L 183 135 Q 182 134 182 136 Q 185 136 186 135 L 184 134 Z M 179 136 L 179 137 Q 182 136 182 137 L 181 143 L 181 144 L 185 144 L 186 143 L 185 140 L 184 139 L 184 138 Q 184 136 184 136 L 179 136 Z "></path><path fill="rgb(222,119,79)" stroke="rgb(222,119,79)" stroke-width="0" opacity="1" d="M 157.2 114.8 L 158.6 115.4 L 158 115.6 L 157 115.2 L 157 116 Q 158.5 115.4 158.2 116.6 L 157.6 116.4 L 155.9 117 L 156.6 117.4 L 156.1 117.6 L 154.7 117.2 L 155.1 116.2 L 154.9 115.6 L 157.2 114.8 Z "></path><path fill="rgb(222,119,79)" stroke="rgb(222,119,79)" stroke-width="0" opacity="1" d="M 149 116.8 L 155.9 119.7 L 149.4 119.9 L 147.7 120.5 L 151 121.5 L 155.7 121.9 L 156.3 122.5 L 156.6 123.6 L 155.1 124.8 L 154.5 125.8 Q 153.6 125.5 153.9 126.4 L 155.3 126.2 L 155.9 126.8 L 152.1 128.1 L 150.2 128.1 L 149 127.7 L 145.7 124.4 Q 144.7 123.9 144.9 122.1 L 145.3 120.9 Q 144 120 144.1 118 L 147.5 118 L 147.7 117.4 L 148.2 117.6 L 149.4 118 L 149 116.8 Z "></path><path fill="rgb(222,119,79)" stroke="rgb(222,119,79)" stroke-width="0" opacity="1" d="M 11.5 117.2 Q 13 116.9 13.3 117.8 L 13.7 118.6 L 12.5 119.1 L 12.1 120.7 L 14.5 121.7 L 11.3 124 Q 10.7 125.9 12.3 125.4 L 13.7 126 L 10.2 127.9 L 9.8 128.7 Q 10.4 130.1 12.5 129.9 L 9 131.4 L 10 133.6 L 12.9 133.6 L 12.9 138.9 L 12.5 139.3 L 12.5 145.5 Q 11.4 147.3 11.7 150 L 2.7 148 Q 2 146.9 2.3 144.5 Q 1.3 145 1.6 143.9 Q 0.8 144.6 0 143.2 L 0.2 121.5 L 1.4 121.9 Q 3.7 120.5 7.4 120.5 L 6.3 120.1 L 10.2 119.5 Q 10.6 118.5 9.6 118.8 L 9.6 118.4 L 10.7 118 L 11.5 118 L 12.1 117.8 L 11.5 117.2 Z "></path><path fill="rgb(222,119,79)" stroke="rgb(222,119,79)" stroke-width="0" opacity="1" d="M 169.3 119.1 L 170.1 119.5 L 172.1 119.1 L 171.9 119.7 Q 172.5 121.4 171.3 121.1 L 169.5 121.9 L 168.9 120.7 L 167.2 120.5 L 169.1 119.7 L 169.3 119.1 Z "></path><path fill="rgb(222,119,79)" stroke="rgb(222,119,79)" stroke-width="0" opacity="1" d="M 164.6 121.1 L 167.2 121.3 Q 166.1 122.2 163.9 121.9 L 163.9 121.5 L 164.6 121.1 Z "></path><path fill="rgb(222,119,79)" stroke="rgb(222,119,79)" stroke-width="0" opacity="1" d="M 26.6 123 Q 29.5 122.6 30.9 123.4 L 29.3 126 L 30.9 127 L 29.7 129.9 Q 30.7 130.4 30.5 132.2 L 28.9 135.7 Q 29.8 136.2 28.7 136.7 Q 25.8 136.9 24.6 138.9 L 24.2 140 L 24.6 141 Q 27.1 141.4 28.3 140.2 L 28.1 140.8 L 23.8 149.8 L 22.9 150.8 Q 21.4 151.1 21.1 150.2 L 20.7 135.4 L 20.3 134 L 24.8 134.4 L 26.4 134 L 27.3 133 L 27.7 130.3 L 26.4 128.5 L 24.4 127.7 L 20.7 127.3 Q 20.1 125.7 21.7 126.2 L 26.6 124.4 L 26.6 123.6 L 26.6 123 Z "></path><path fill="rgb(222,119,79)" stroke="rgb(222,119,79)" stroke-width="0" opacity="1" d="M 156.4 127.3 L 157 127.5 L 153.9 133 L 154.5 132.8 Q 156.8 132.2 156.3 133.6 L 154.7 133.8 L 155.9 134.2 L 154.1 136.3 Q 150.2 136.8 148.4 135 L 148.4 133 L 146.5 129.1 L 153.3 128.9 L 156.4 127.3 Z M 153 133 L 153 134 Q 151 133 152 134 L 153 135 L 155 134 L 153 133 Z "></path><path fill="rgb(222,119,79)" stroke="rgb(222,119,79)" stroke-width="0" opacity="1" d="M 173.6 128.1 L 175 128.1 L 175 131.4 L 174.6 132.6 L 175 133 L 175 136.1 Q 173.4 136.9 175 137.7 L 175.4 142.8 L 175.4 143.6 Q 174.7 146 175.8 146.7 L 173.2 148 L 167.4 149.2 L 167.2 148.2 L 165.2 140.4 L 165.8 139.8 L 169.3 139.8 L 170.3 138.9 Q 170.8 137.6 169.7 137.9 L 168.9 136.3 L 164.8 135.4 L 165.4 134.8 L 169.1 134.6 L 164.8 132.4 L 164.8 129.7 L 166.6 129.7 L 167 129.3 L 170.1 129.3 L 173.6 128.1 Z "></path><path fill="rgb(222,119,79)" stroke="rgb(222,119,79)" stroke-width="0" opacity="1" d="M 148.6 136.7 L 155.1 137.7 L 154.1 138.7 L 152.9 138.7 L 149.4 140.6 Q 148.3 140.1 149.2 139.6 L 149.6 138.9 L 148.6 136.7 Z "></path><path fill="rgb(222,119,79)" stroke="rgb(222,119,79)" stroke-width="0" opacity="1" d="M 156.1 140.2 Q 158.1 139.6 157.4 141.6 L 154.7 150.6 Q 155.3 151.8 157.6 151.2 L 158.6 150.8 L 157.8 152.7 L 153.7 153.9 L 151.2 150.2 L 148.8 142 Q 149.9 141.1 152.1 141.4 L 152 142 Q 151.7 142.9 152.5 142.6 L 156.1 140.2 Z "></path><path fill="rgb(222,119,79)" stroke="rgb(222,119,79)" stroke-width="0" opacity="1" d="M 1.4 154.3 L 4.3 155.3 L 3.3 155.5 L 1.4 154.7 L 1.4 154.3 Z "></path><path fill="rgb(222,119,79)" stroke="rgb(222,119,79)" stroke-width="0" opacity="1" d="M 158.4 156.6 L 158.4 157.8 L 156.8 158.6 L 153.7 157.4 L 153.1 157.6 L 154.1 157 L 154.9 157.4 L 156.8 157 L 157.6 157.4 L 158.4 156.6 Z "></path><path fill="rgb(222,119,79)" stroke="rgb(222,119,79)" stroke-width="0" opacity="1" d="M 135 157.4 Q 135.8 157.1 135.5 158 Q 132.8 160.7 128.7 162.1 L 117 166.8 L 108.4 171.5 L 108.4 170.7 L 105.7 171.1 L 105.3 170.7 L 101.4 170.7 L 99 169.9 L 92 169.1 L 85.4 167.6 L 83 167.6 L 72.5 164.8 L 68.6 164.5 L 67.4 164.8 L 67.4 164.5 L 68.4 164.3 L 63.9 163.3 L 63.1 163.7 L 61.7 163.3 L 61.7 162.5 Q 60.7 162.9 60.9 161.9 L 60.2 159.4 L 64.6 159.4 L 65 159.8 L 104.9 159.8 L 105.3 160.2 L 115.4 160.2 L 115.8 159.8 L 130.7 159.8 L 133.4 159 L 135 157.4 Z "></path><path fill="rgb(222,119,79)" stroke="rgb(222,119,79)" stroke-width="0" opacity="1" d="M 150.2 157.8 L 151.2 158 L 150.6 158.6 L 148.2 159 L 148.2 158.6 L 150.2 157.8 Z "></path><path fill="rgb(222,119,79)" stroke="rgb(222,119,79)" stroke-width="0" opacity="1" d="M 185 157.8 L 185.9 158 L 184 159.6 Q 185.6 158.7 185 157.8 Z "></path><path fill="rgb(222,119,79)" stroke="rgb(222,119,79)" stroke-width="0" opacity="1" d="M 0.4 158.6 L 2.3 159.2 L 0.8 159.6 L 1.6 159.8 L 2.3 161.7 L 0.8 161.3 L 0.4 158.6 Z "></path><path fill="rgb(222,119,79)" stroke="rgb(222,119,79)" stroke-width="0" opacity="1" d="M 20.9 159 L 23.8 160 L 22.9 160.2 L 20.9 159.4 L 20.9 159 Z "></path><path fill="rgb(222,119,79)" stroke="rgb(222,119,79)" stroke-width="0" opacity="1" d="M 12.7 160.5 L 15.6 161.5 L 14.6 161.7 L 12.7 160.9 L 12.7 160.5 Z "></path><path fill="rgb(222,119,79)" stroke="rgb(222,119,79)" stroke-width="0" opacity="1" d="M 155.7 161.3 L 157.4 161.5 L 155.1 163.5 L 154.3 165.6 L 152.5 166.4 L 152 166.2 Q 152.3 167.2 151 166.8 L 150.4 167 L 151.4 165.6 L 152 165.8 L 151.6 165 L 152.7 165 L 152.5 165.6 Q 153.6 166 153.1 164.6 L 153.5 163.1 L 153.1 162.1 Q 154.9 162.4 155.7 161.3 Z "></path><path fill="rgb(222,119,79)" stroke="rgb(222,119,79)" stroke-width="0" opacity="1" d="M 19.7 162.9 L 25.8 165 L 25 165.4 L 26.8 166 L 26.8 165.6 L 26.2 165.4 L 26.8 165.2 L 33.2 167.8 L 32.6 168 L 29.5 166.8 L 27.9 167.2 L 27.5 166.4 L 29.1 166.8 L 29.1 166.4 L 27 166 Q 27.4 167.1 26.4 166.8 L 24.8 166.4 L 24.8 166.8 L 30.5 168.9 L 29.9 169.1 L 16 163.9 L 16.6 163.7 L 23.2 166 L 23.2 165.6 L 22.7 165.4 L 24.6 165 L 20.5 163.7 L 19.7 162.9 Z "></path><path fill="rgb(222,119,79)" stroke="rgb(222,119,79)" stroke-width="0" opacity="1" d="M 9.2 163.7 L 10.5 164.3 L 10.4 164.8 L 11.1 164.5 L 11.1 165.6 L 9.6 164.8 L 9 165 L 9.6 164.1 L 9.2 163.7 Z "></path><path fill="rgb(222,119,79)" stroke="rgb(222,119,79)" stroke-width="0" opacity="1" d="M 3.3 164.5 L 6.3 165.4 L 5.3 165.6 L 3.3 164.8 L 3.3 164.5 Z "></path><path fill="rgb(222,119,79)" stroke="rgb(222,119,79)" stroke-width="0" opacity="1" d="M 12.3 164.8 L 36.3 174 L 35.4 174.2 L 34.2 173.4 L 33.4 173.4 L 15.2 167.2 L 15 166.4 L 14.3 166.8 L 12.9 166.4 Q 13.3 165.4 12.3 165.6 L 11.7 165.8 L 12.3 164.8 Z "></path><path fill="rgb(222,119,79)" stroke="rgb(222,119,79)" stroke-width="0" opacity="1" d="M 166.2 170.3 L 165.8 171.1 L 164.3 171.9 L 164.6 171.1 L 166.2 170.3 Z "></path><path fill="rgb(222,119,79)" stroke="rgb(222,119,79)" stroke-width="0" opacity="1" d="M 23.2 171.5 L 28.9 173.6 L 28.3 173.8 L 23.2 171.9 L 23.2 171.5 Z "></path><path fill="rgb(222,119,79)" stroke="rgb(222,119,79)" stroke-width="0" opacity="1" d="M 163.5 171.9 L 163.1 172.7 L 161.5 173.8 L 161.3 173 L 163.5 171.9 Z "></path><path fill="rgb(222,119,79)" stroke="rgb(222,119,79)" stroke-width="0" opacity="1" d="M 160.7 173.8 L 159.8 175.2 Q 160.3 176.8 158.4 176.2 L 159.6 174.6 L 160.7 173.8 Z "></path><path fill="rgb(222,119,79)" stroke="rgb(222,119,79)" stroke-width="0" opacity="1" d="M 30.3 174.2 L 43.8 179.1 L 43.2 179.3 L 30.3 174.6 L 30.3 174.2 Z "></path><path fill="rgb(222,119,79)" stroke="rgb(222,119,79)" stroke-width="0" opacity="1" d="M 36.9 174.2 L 45.3 177.3 L 45.1 178.1 L 36.9 174.6 L 36.9 174.2 Z "></path><path fill="rgb(222,119,79)" stroke="rgb(222,119,79)" stroke-width="0" opacity="1" d="M 79.5 177 Q 80.4 177.2 80.1 178.7 L 78.7 180.9 L 78.9 180.3 L 79.3 177.9 Q 78.4 177.4 79.5 177 Z "></path><path fill="rgb(222,119,79)" stroke="rgb(222,119,79)" stroke-width="0" opacity="1" d="M 155.7 177.3 L 156.6 177.9 L 142.4 182.8 L 137.3 185.2 L 124.4 188.7 L 113.1 190.6 L 101.4 191 L 101 191.4 L 92.4 191.4 L 92 191 L 86.9 191 L 86.5 190.6 L 83 190.6 L 82.6 190.2 L 79.5 190.2 L 79.1 189.8 L 72.5 189.1 L 65.8 187.1 L 62.7 186.7 L 54.9 184 L 53.3 184 Q 52 182 49.2 181.4 L 50.2 181.3 L 52.7 182.6 L 53.3 183.6 L 54.9 183.2 Q 60.6 186.1 68.2 187.1 L 68.9 186.7 L 68.9 187.5 L 70.5 187.1 L 70.7 187.9 L 72.5 187.5 L 72.7 188.3 L 74.6 187.9 Q 74.1 189.2 76 188.7 L 76.6 188.5 Q 76.2 189.8 78.3 189.1 L 79.3 188.7 Q 78.9 190 81.8 189.5 L 82.2 189.8 L 85.7 189.8 L 86.3 189.6 Q 86 190.8 87.7 190.2 L 88.5 190.2 L 89.3 190.6 L 104.5 190.6 L 104.9 190.2 L 109.2 190.2 L 109.6 189.8 L 114.3 189.8 L 126.4 187.5 L 127.1 186.7 L 128.3 187.1 L 136.5 184.8 L 150.6 178.9 L 155.7 177.3 Z "></path></svg>