<svg width="200" height="200" version="1.1" xmlns="http://www.w3.org/2000/svg" desc="Created with imagetracer.js version 1.2.6"><path fill="rgb(25,63,91)" stroke="rgb(25,63,91)" stroke-width="0" opacity="1" d="M 154.1 7 Q 156.8 6.5 158 7.4 L 194.9 43.9 L 195.7 45.1 L 195.7 89.3 L 195.3 89.6 L 195.3 155.7 L 195.7 156.1 L 194.3 157.4 L 156.6 193.9 L 156.6 194.9 L 154.1 194.9 Q 153.6 195.8 151.8 195.3 L 150.6 194.9 L 149.4 195.3 L 120.1 195.3 L 118.9 194.9 L 118.2 194.9 L 117 195.3 L 116.6 194.9 L 106.4 194.9 L 106.1 195.3 L 97.9 195.3 L 97.5 194.9 L 43.2 194.9 L 29.7 181.8 Q 30 181 29.1 181.3 L 6.4 157.8 L 5.5 157.2 L 5.5 49.4 L 5.9 49 L 5.5 48.6 L 5.5 44.7 L 40.8 7.8 L 66.2 7.8 L 66.6 7.4 L 153.7 7.4 L 154.1 7 Z M 42 9 L 42 10 L 27 25 L 26 27 L 17 36 L 15 37 L 15 38 L 7 46 L 7 97 L 23 88 L 35 73 L 38 71 L 44 71 L 45 69 L 51 51 L 53 48 Q 58 45 61 41 L 64 41 L 65 42 L 71 41 L 74 37 L 78 35 L 80 33 L 82 27 L 86 22 L 94 14 Q 98 14 99 16 L 104 22 L 109 25 L 111 28 L 115 36 L 124 41 Q 130 46 133 53 L 134 54 L 138 54 L 142 56 Q 145 58 146 62 L 151 74 L 155 83 L 157 81 L 167 72 L 169 71 L 172 71 Q 175 73 176 76 L 179 87 L 180 88 L 185 89 Q 188 91 188 96 L 189 98 L 188 97 L 186 94 L 185 93 L 184 95 L 184 97 L 193 102 L 193 100 L 192 99 L 193 99 L 193 77 L 193 77 L 193 63 L 192 63 L 192 51 L 192 51 L 192 46 L 190 43 L 171 24 L 169 22 L 155 9 L 42 9 Z M 96 16 L 84 29 L 80 35 L 77 37 L 74 39 Q 76 37 79 36 L 78 35 L 75 37 Q 73 38 73 41 L 71 43 L 67 43 L 65 45 L 62 46 L 61 45 L 59 46 L 60 46 Q 61 48 60 47 L 58 49 L 55 56 L 52 67 Q 41 86 32 106 L 34 106 L 38 101 L 63 49 L 67 45 L 68 45 L 68 45 L 68 50 L 68 51 L 68 59 L 67 59 Q 67 61 68 62 L 67 62 L 66 64 L 61 71 L 60 72 Q 61 68 63 65 L 64 62 L 64 58 L 64 58 L 64 53 L 64 53 Q 64 52 63 52 L 63 54 L 63 55 L 60 58 L 47 84 L 43 94 L 41 99 L 39 105 L 39 106 L 54 81 L 56 79 L 56 80 Q 56 82 55 83 L 55 84 L 56 84 L 61 78 L 63 74 L 63 73 L 64 72 L 63 72 L 64 72 Q 66 68 68 63 L 71 57 Q 71 56 72 57 L 74 53 L 74 51 Q 75 48 76 44 L 80 41 L 81 39 L 82 36 L 84 34 L 85 33 L 86 29 L 90 25 L 91 24 L 93 23 L 93 25 L 93 30 Q 88 37 82 43 L 82 44 L 85 46 L 89 50 L 88 53 L 84 48 Q 83 48 83 47 L 80 45 L 79 48 L 78 57 L 77 57 L 77 61 L 79 61 L 79 59 L 80 53 L 82 49 L 89 55 L 89 60 L 88 63 L 83 73 L 83 77 L 84 77 L 84 83 L 85 84 L 93 76 L 95 72 L 96 68 L 96 63 L 96 63 L 96 58 L 100 51 L 102 44 L 103 42 Q 102 41 104 41 L 105 44 L 113 59 L 117 71 L 120 62 L 120 59 L 116 40 Q 117 37 115 38 L 108 27 Q 107 25 104 25 L 102 28 L 96 37 L 89 44 L 89 45 Q 88 43 89 42 L 96 35 L 97 32 L 97 17 L 96 16 Z M 119 40 L 122 52 L 130 68 L 131 69 L 132 68 L 132 69 L 133 71 L 133 69 L 133 67 L 132 68 L 131 65 L 125 53 L 124 47 Q 123 45 125 46 L 126 50 L 130 56 Q 132 65 135 72 L 136 72 L 135 65 L 134 57 Q 131 51 127 46 Q 124 42 119 40 Z M 103 45 L 102 53 L 102 67 L 102 67 L 103 74 L 106 90 L 108 97 L 109 88 L 113 78 L 113 73 L 109 67 L 109 64 L 107 55 L 104 45 Q 104 44 103 45 Z M 56 48 L 54 49 L 52 52 L 48 67 L 46 71 L 44 72 Q 40 72 38 73 L 23 92 L 12 103 L 8 106 L 8 109 L 7 109 L 8 110 L 8 123 L 13 119 L 16 117 L 20 112 L 21 110 L 26 108 L 27 108 L 29 107 L 30 106 L 28 105 L 28 105 L 31 105 L 32 103 L 48 72 L 51 63 L 54 53 L 56 49 L 56 48 Z M 83 52 L 81 62 L 81 62 L 79 61 L 76 65 L 75 69 L 74 71 L 72 68 L 72 69 L 72 71 L 74 74 L 74 75 L 75 75 L 73 76 L 71 72 L 70 73 L 70 75 L 72 79 L 73 78 L 73 78 L 73 77 L 77 75 L 80 75 L 79 78 Q 78 78 79 79 L 79 81 L 78 84 L 78 86 L 78 86 L 78 85 Q 78 84 79 84 L 79 81 L 80 74 L 81 74 L 80 77 L 79 88 Q 82 87 83 85 L 83 74 L 82 73 L 84 68 L 84 67 L 82 63 L 84 55 L 84 53 L 83 52 Z M 86 55 L 84 64 L 84 67 Q 87 64 88 59 L 86 55 Z M 109 56 L 109 59 L 110 59 Q 110 57 109 56 Z M 138 56 L 139 59 L 138 58 L 138 60 L 139 64 L 140 74 L 143 88 L 149 107 L 151 112 L 152 113 L 152 117 L 157 122 L 158 121 L 157 120 L 157 120 L 158 120 L 161 120 L 164 123 Q 165 124 165 123 L 165 124 Q 166 125 167 124 L 167 125 L 167 125 L 187 143 L 191 144 L 192 144 L 193 144 L 193 138 L 193 138 L 193 123 L 191 122 L 184 118 L 170 108 L 166 104 L 157 92 L 148 73 L 143 60 L 141 58 L 140 58 L 141 59 L 140 59 L 140 57 L 138 56 Z M 111 59 L 111 64 L 112 68 L 113 69 L 114 72 L 114 77 L 115 77 L 114 78 Q 114 80 115 80 L 115 90 L 115 90 L 115 104 L 116 105 L 120 109 L 121 110 L 121 101 Q 120 100 120 97 L 116 78 L 116 74 L 112 62 L 111 59 Z M 74 65 L 73 67 L 74 68 L 75 66 L 74 65 Z M 172 73 L 159 88 L 159 89 L 161 88 L 162 86 L 167 81 L 167 83 L 165 86 L 163 87 L 160 90 L 162 93 L 170 85 L 170 85 L 170 83 Q 169 78 171 77 L 172 78 L 172 84 L 174 90 L 175 97 L 175 98 L 175 105 L 175 106 L 175 107 Q 175 108 176 108 L 179 103 L 182 110 Q 183 107 185 105 L 186 109 L 187 110 L 189 107 L 191 105 L 191 106 L 188 112 L 189 112 L 192 115 L 193 115 L 193 103 L 185 98 L 183 97 L 182 93 Q 182 91 183 90 L 183 89 L 179 89 L 178 87 Q 177 80 174 75 L 172 73 Z M 95 75 L 91 80 L 84 88 Q 72 102 57 114 L 38 128 L 18 141 Q 16 141 16 140 L 13 140 L 15 141 Q 18 144 23 145 L 24 146 L 25 146 L 41 146 L 49 152 L 52 154 L 57 155 L 60 156 L 60 157 L 56 155 L 50 154 L 41 146 L 28 146 L 26 148 L 21 148 L 20 149 L 20 148 L 17 148 Q 13 151 8 152 L 8 152 L 8 156 L 9 157 L 18 167 L 21 170 L 22 170 L 30 163 L 34 159 L 33 160 L 22 171 L 23 172 L 32 180 L 37 180 L 41 182 L 42 182 L 46 182 L 50 183 L 55 183 L 62 181 L 58 180 Q 57 180 57 179 L 65 182 L 72 184 L 74 186 L 81 186 L 82 187 Q 83 187 82 186 L 84 186 Q 83 187 84 187 Q 85 189 86 188 Q 86 187 85 187 L 85 186 Q 84 187 85 186 L 85 185 L 87 188 Q 87 189 88 189 L 89 191 L 91 191 Q 92 191 91 192 L 92 192 Q 92 193 93 193 L 94 191 L 94 193 Q 95 192 95 193 L 96 194 L 106 194 L 107 193 L 107 190 L 107 186 Q 104 183 100 182 L 97 182 L 87 185 L 87 184 L 86 184 L 86 184 L 87 184 L 98 181 Q 96 180 92 179 L 93 179 L 93 179 L 97 180 L 98 181 L 100 181 L 107 183 L 112 184 L 118 186 L 118 183 Q 117 183 118 182 L 121 182 L 121 183 L 122 182 Q 124 182 124 183 Q 125 183 125 182 L 129 181 L 136 190 L 140 194 L 144 194 L 147 193 L 147 188 L 145 183 L 144 183 L 145 183 L 146 184 L 146 184 L 147 185 L 148 184 Q 150 182 152 181 L 169 177 L 171 176 L 169 174 L 152 168 L 151 168 L 173 175 L 175 172 L 190 159 L 193 155 Q 194 151 193 149 L 191 147 L 178 144 L 157 144 L 155 146 L 151 150 L 138 157 Q 128 163 115 166 L 114 166 L 105 167 L 106 167 L 112 167 L 111 168 L 111 168 L 111 169 L 97 172 L 78 176 L 76 176 L 72 177 L 56 177 L 56 177 L 51 177 L 47 175 L 42 176 L 33 179 L 31 179 L 40 175 L 41 173 L 41 163 L 39 159 L 41 160 Q 40 161 42 161 L 41 161 L 42 161 L 42 162 L 52 173 Q 57 171 60 167 L 62 167 L 62 168 Q 63 168 63 169 L 69 175 L 71 175 L 75 174 L 74 174 L 75 173 L 75 172 L 75 171 Q 75 170 74 170 L 74 170 L 72 170 L 73 166 L 76 167 Q 77 167 76 168 L 76 170 L 78 170 L 77 169 L 78 166 L 79 169 Q 78 172 79 173 L 86 172 L 87 171 L 87 168 L 88 168 L 88 171 L 89 171 L 89 168 L 87 167 L 87 164 L 86 163 L 87 163 L 87 163 L 88 166 L 89 167 L 89 164 L 88 164 L 89 164 Q 90 164 89 165 L 90 167 L 91 166 L 91 165 L 91 164 L 91 168 L 92 168 Q 91 170 93 170 Q 93 166 93 164 L 93 164 L 93 166 L 94 167 L 93 167 L 94 169 Q 93 169 94 169 L 96 167 L 96 169 L 97 168 L 98 167 L 97 166 L 96 165 L 97 165 Q 99 166 98 168 Q 100 168 100 167 L 100 166 L 100 166 L 101 168 L 105 167 L 98 165 L 96 164 L 95 165 L 96 165 L 96 166 L 96 166 Q 95 167 95 165 Q 94 165 95 164 L 87 163 L 72 157 L 63 156 L 56 153 L 52 152 L 49 150 L 44 145 L 41 142 L 38 143 L 37 141 L 40 140 L 43 141 L 45 144 L 51 149 L 58 151 L 61 153 L 62 149 L 63 147 L 72 127 L 72 127 L 67 139 L 65 144 L 64 146 L 63 149 L 61 152 L 61 153 L 63 154 L 77 122 L 86 107 L 91 96 L 92 96 L 88 105 L 88 107 L 88 115 L 88 114 L 88 115 L 88 116 L 89 116 Q 89 114 90 115 Q 89 118 91 119 L 90 121 L 92 122 Q 93 123 93 122 L 93 122 Q 93 124 94 123 L 94 119 L 93 116 L 94 115 L 94 111 L 94 111 L 94 110 Q 93 109 94 108 L 93 108 L 93 111 L 94 112 Q 93 112 93 114 L 93 114 L 93 105 L 93 104 L 93 103 L 94 102 Q 93 101 95 101 L 95 85 L 95 85 L 95 75 Z M 63 77 L 56 85 L 59 83 L 59 82 L 60 82 L 63 78 L 63 77 Z M 69 77 L 68 77 L 68 79 L 70 84 L 72 82 Q 72 80 71 80 L 71 80 L 71 79 Q 71 78 70 79 L 69 77 Z M 97 80 L 97 112 L 96 117 L 97 121 L 98 121 L 98 120 L 97 119 L 98 118 L 100 123 L 101 123 L 102 123 L 103 124 L 104 124 L 104 125 L 107 127 L 107 128 Q 108 128 107 129 L 111 130 L 115 138 L 117 146 L 118 149 L 123 152 L 127 152 Q 129 153 129 151 L 137 151 L 138 150 L 137 149 L 137 148 L 138 150 L 139 150 L 134 137 L 132 129 Q 132 128 129 128 L 127 125 Q 126 119 123 115 L 110 101 L 107 97 L 103 87 L 97 80 Z M 113 81 L 112 84 L 110 90 L 110 99 L 111 101 L 113 103 L 113 96 L 113 93 L 113 90 L 113 89 L 113 86 L 113 86 L 113 81 Z M 67 82 L 66 83 L 67 84 L 68 83 L 67 82 Z M 21 91 Q 14 94 8 99 L 8 104 L 11 102 L 21 91 L 21 91 Z M 173 91 L 170 98 L 170 99 L 170 102 L 170 99 L 169 100 L 169 102 Q 170 102 170 104 L 171 104 Q 171 105 172 105 L 173 105 L 174 103 L 174 99 L 173 98 L 173 94 L 173 91 Z M 65 91 L 65 92 Q 65 93 64 93 L 63 96 L 59 106 L 59 107 L 64 101 L 66 98 L 66 97 L 66 96 L 66 97 L 67 97 Q 66 96 66 93 L 66 92 Q 66 91 65 91 Z M 29 108 L 25 110 L 24 110 L 23 111 L 22 112 L 20 113 L 21 113 Q 21 114 20 114 Q 16 118 14 124 L 15 124 Q 16 125 16 124 Q 15 123 16 122 L 17 123 L 19 122 L 21 121 L 22 121 L 23 119 L 23 117 L 23 117 Q 24 116 24 116 L 25 116 L 26 114 Q 24 114 26 113 L 26 113 L 29 109 L 29 108 Z M 37 111 L 36 111 L 36 112 Q 36 113 35 113 L 35 113 L 35 114 L 37 111 L 37 111 Z M 35 114 L 34 116 L 34 117 L 35 115 L 35 114 Z M 89 116 L 88 117 L 89 117 L 89 117 L 89 118 L 88 118 Q 88 119 89 119 L 89 116 Z M 13 120 L 13 120 Q 11 120 11 122 Q 12 123 13 123 L 14 121 Q 15 119 13 120 Z M 158 121 L 158 122 L 158 123 L 159 124 L 158 121 Z M 34 124 Q 34 125 33 124 L 32 128 L 32 129 L 33 128 L 36 124 Q 36 123 34 124 Z M 73 167 L 73 168 L 74 169 L 75 169 L 75 167 L 73 167 Z M 89 167 L 89 169 L 89 170 L 91 170 L 91 169 L 91 167 L 89 167 Z M 76 170 L 76 171 L 78 172 Q 79 169 76 170 Z M 33 181 L 39 188 Q 46 187 52 184 L 45 182 L 44 183 L 41 183 L 36 181 L 33 181 Z M 61 182 L 52 185 L 45 188 L 47 189 L 50 194 L 69 194 L 70 193 Q 70 189 69 186 L 63 182 L 61 182 Z M 126 183 L 124 183 L 127 187 L 128 188 L 131 187 L 130 185 Q 129 183 126 183 Z M 118 184 L 118 185 L 120 186 L 122 188 L 125 188 L 125 187 L 124 185 L 122 184 L 118 184 Z M 130 187 L 128 188 L 129 190 L 132 193 L 133 193 L 137 193 L 134 190 L 131 187 L 130 187 Z M 41 188 L 41 189 L 45 193 L 47 193 L 48 193 L 48 192 L 44 188 L 41 188 Z M 125 189 L 123 189 L 126 193 Q 127 194 130 193 Q 130 192 129 193 L 128 190 Q 128 188 126 189 L 125 189 Z "></path><path fill="rgb(25,63,91)" stroke="rgb(25,63,91)" stroke-width="0" opacity="1" d="M 199.2 45.3 L 200 45.5 L 200 54.5 L 199.6 54.5 L 199.2 53.7 L 199.6 53.3 L 199.6 47.1 L 199.2 45.3 Z "></path><path fill="rgb(25,63,91)" stroke="rgb(25,63,91)" stroke-width="0" opacity="1" d="M 1.4 46.1 L 1.6 154.3 L 0 153.3 L 0 122.5 L 0.4 122.1 L 0.4 116.2 L 0 115 L 0.4 113.1 L 0.4 86.5 L 0 86.1 L 0 81.4 L 0.4 81.1 L 0.4 47.1 L 1.4 46.1 Z "></path><path fill="rgb(25,63,91)" stroke="rgb(25,63,91)" stroke-width="0" opacity="1" d="M 199.8 55.1 L 200 59.2 L 199.6 59.2 L 199.8 55.1 Z "></path><path fill="rgb(25,63,91)" stroke="rgb(25,63,91)" stroke-width="0" opacity="1" d="M 199.8 68.8 L 200 75.6 L 199.6 75.6 L 199.8 68.8 Z "></path><path fill="rgb(25,63,91)" stroke="rgb(25,63,91)" stroke-width="0" opacity="1" d="M 61.9 73.4 L 62.1 74 L 57.2 80.1 L 57.4 79.5 L 58.2 77.5 L 61.9 73.4 Z "></path><path fill="rgb(25,63,91)" stroke="rgb(25,63,91)" stroke-width="0" opacity="1" d="M 199.8 88.3 L 200 153.9 L 199.2 153.7 L 199.2 147.1 L 199.6 145.9 L 199.2 145.1 L 199.6 144.7 L 199.8 88.3 Z "></path><path fill="rgb(25,63,91)" stroke="rgb(25,63,91)" stroke-width="0" opacity="1" d="M 88.9 107.8 L 89.1 113.5 L 88.7 113.5 L 88.3 112.7 L 88.7 112.3 L 88.9 107.8 Z "></path><path fill="rgb(25,63,91)" stroke="rgb(25,63,91)" stroke-width="0" opacity="1" d="M 65.4 157.8 L 68.4 158.4 L 67 158.6 L 65.4 158.2 L 65.4 157.8 Z "></path><path fill="rgb(25,63,91)" stroke="rgb(25,63,91)" stroke-width="0" opacity="1" d="M 157.6 163.3 L 158.2 163.5 L 157.8 164.5 Q 159.7 163.8 159 166 L 157.8 166.2 L 159.4 167.4 L 158.8 167.6 L 154.7 165.8 L 157.6 163.3 Z "></path><path fill="rgb(25,63,91)" stroke="rgb(25,63,91)" stroke-width="0" opacity="1" d="M 148.2 167.2 L 149.4 167.6 L 150 167.4 L 148.6 168.4 L 135.7 172.3 L 111.3 177.7 L 111.1 178.5 L 109.2 177.3 L 104.1 175.8 L 97.9 175.8 L 92 177.3 L 92.4 176.6 L 98.2 175 L 102.9 175 L 119.3 171.9 L 121.7 171.9 L 130.3 170.3 L 133.8 170.3 L 136.5 169.5 L 139.3 169.5 L 144.7 168 L 146.7 168 L 148.2 167.2 Z M 134 171 L 113 174 L 106 175 L 105 176 L 110 177 L 113 177 L 120 175 L 136 171 L 134 171 Z "></path><path fill="rgb(25,63,91)" stroke="rgb(25,63,91)" stroke-width="0" opacity="1" d="M 74.4 177.3 L 78.3 177.7 L 84.2 179.7 L 90 178.1 L 91.2 177.3 L 91.4 178.1 L 92.6 178.3 L 91.2 178.9 L 89.6 178.5 L 84.6 180.5 L 83.4 180.5 L 79.9 178.9 L 74.4 177.7 L 74.4 177.3 Z "></path><path fill="rgb(25,63,91)" stroke="rgb(25,63,91)" stroke-width="0" opacity="1" d="M 80.3 181.6 L 84 183.8 Q 83.1 185.3 82.2 183.2 Q 80.4 182.7 80.3 181.6 Z "></path><path fill="rgb(207,227,234)" stroke="rgb(207,227,234)" stroke-width="0" opacity="1" d="M 0 0 L 199.8 0 L 200 0.2 L 200 43.2 L 199.2 45.5 L 199.2 68.2 L 199.6 69.3 L 199.6 75.2 L 199.2 75.6 L 199.2 76.4 L 199.2 86.1 L 200 86.9 L 199.2 88.1 L 199.2 89.6 L 199.6 90.4 L 199.6 108.8 L 199.6 109.6 L 199.2 111.1 L 199.2 111.9 L 199.2 123.2 L 199.6 123.6 L 199.2 124.8 L 199.6 126.4 L 199.2 126.8 L 199.2 153.9 L 200 154.1 L 200 200 L 0.2 200 L 0 199.8 L 0 153.7 L 1.6 154.5 L 2 153.3 L 2 147.5 L 1.6 147.1 L 1.4 45.7 L 0.4 45.9 L 0.2 78.9 L 0 0 Z M 141 7 L 140 7 L 41 7 L 40 9 Q 39 9 39 10 L 38 10 L 36 13 Q 35 13 35 14 L 34 14 L 34 14 L 34 14 L 29 21 L 26 22 L 26 23 L 20 29 L 19 31 L 12 37 L 5 44 L 5 157 L 22 174 Q 23 174 22 175 L 23 175 L 23 175 L 33 185 L 42 194 L 44 195 L 156 195 L 157 194 L 181 170 Q 182 171 181 170 L 182 170 L 182 169 L 194 157 L 196 157 L 195 155 L 195 152 L 196 151 L 196 148 L 195 147 L 195 97 L 195 97 L 196 96 L 196 68 L 196 67 Q 197 64 196 63 L 196 62 L 196 60 Q 197 58 196 58 L 196 45 L 158 7 L 145 7 L 145 7 L 141 7 Z "></path><path fill="rgb(207,227,234)" stroke="rgb(207,227,234)" stroke-width="0" opacity="1" d="M 95.5 16.4 L 96.9 16.6 L 96.9 30.7 L 96.1 34.6 L 89.1 42.8 L 88.7 44.7 L 90.6 43.2 L 98 34.6 Q 100 29.1 103.7 25.4 L 105.7 25 L 109 27.9 Q 111.5 33.6 115.4 37.9 L 116 38.1 L 116 38.9 L 117.6 50.2 L 119.1 57.2 L 119.1 60 L 119.5 60.4 Q 118.5 61 119.1 63.5 L 117 71.1 L 112.5 57.6 L 105.1 42.8 L 103.7 41.4 L 102.3 42 L 99.6 51.4 L 96.1 58.8 L 95.3 69.7 L 94.5 72.5 Q 91.4 77.9 86.5 81.6 L 84.2 83.6 L 83.6 82.2 L 83.6 74.4 L 83.2 73.6 L 86.7 66.2 L 88.3 61.5 L 89.1 55.7 L 85.7 52 L 84 50.6 L 82.6 48.8 Q 81.2 48.3 81.6 49.8 L 80.5 52.5 L 78.9 60.4 L 77.9 61.3 L 77.3 61.1 L 77.3 57.6 L 77.7 57.2 L 78.9 48.2 L 80.1 44.9 Q 82.2 45.2 83.2 47.1 Q 82.9 47.9 83.8 47.7 L 88.5 53.1 L 88.7 49.8 L 85.4 46.1 L 82 43.9 L 82 43.2 Q 87.9 37.9 92.2 31.1 Q 93.8 28.8 93.4 24.4 L 92.6 22.7 L 92 22.7 L 87.5 27.1 L 85.5 30.3 L 85.2 33.4 L 84.6 34 L 81.3 36.1 L 80.9 38.1 L 81.3 39.3 L 75.8 43.9 Q 75.2 48.5 73.4 51.8 L 73.8 52.5 L 71.9 56.6 Q 70.8 56.2 71.1 57.2 L 68 61.9 L 66 67.8 L 63.1 73 L 62.5 72.9 L 62.9 73.6 L 60.9 77.5 L 55.7 83.6 L 54.9 84 L 54.7 83.4 Q 56.1 82.3 56.3 79.9 L 55.7 79.3 L 53.9 81.1 L 38.9 106.6 L 38.7 106.1 L 39.1 105.3 L 39.1 104.5 Q 39.5 101 41.4 99 L 41.8 96.3 L 45.3 88.1 L 59.4 60 L 62.5 55.3 L 63.3 52.3 Q 64.6 51.8 64.1 53.7 L 64.5 55.7 L 64.1 56.1 L 64.1 60.4 L 63.3 64.6 L 60.5 69.7 L 60.2 71.7 L 61.7 70.5 L 65.6 65 L 66.6 62.5 L 67 63.3 L 67.6 61.9 L 67.2 60 L 67.6 59.6 L 67.6 51.4 L 68 51 L 68 45.1 L 68.4 44.7 L 67 44.5 L 63.3 49 L 38.3 100.6 L 34.2 105.9 L 32.6 106.3 L 32.8 105.7 Q 41.1 85.9 51.6 68.2 L 55.5 54.9 L 57.8 49.4 L 59.2 47.7 L 60.2 47.1 Q 60.6 45.8 59.6 46.1 L 60.4 44.9 L 61.7 45.5 L 61.9 46.1 Q 65.5 45.2 67.8 43 L 72.3 42.2 Q 72.8 38.4 76 36.7 L 77.9 35.5 L 77.9 36.3 L 80.9 34.2 L 84 28.7 L 95.5 16.4 Z M 62 73 Q 59 76 57 79 L 58 80 L 62 74 L 62 73 Z "></path><path fill="rgb(207,227,234)" stroke="rgb(207,227,234)" stroke-width="0" opacity="1" d="M 141.6 18 L 145.1 18 L 148 19.5 L 149.6 22.1 L 150 24.6 Q 151.8 24.4 152.5 25.8 L 154.9 25.8 L 158.8 27.7 Q 162.7 28.1 165.2 29.9 L 164.6 30.5 L 121.9 30.5 Q 121.2 28.9 122.9 29.3 L 127.3 26.8 Q 127.1 25.9 127.9 26.2 L 129.1 25.4 Q 131.7 26.1 132.4 24.8 L 134.2 22.7 L 137.5 22.3 Q 137.5 20.1 139.3 19.1 L 141.6 18 Z "></path><path fill="rgb(207,227,234)" stroke="rgb(207,227,234)" stroke-width="0" opacity="1" d="M 26.8 25.8 L 27.1 26.2 L 33 26.6 L 36.7 29.1 L 38.3 32 L 40.4 31.3 L 43.2 31.3 L 45.7 33 L 45.9 33.6 L 50.2 33.6 L 53.7 35.5 L 60.4 37.1 L 64.1 39.3 L 63.1 40.2 Q 61.2 39.7 60.7 40.6 L 35.4 40.6 L 34.2 41 L 32.6 40.6 L 31.1 41 L 30.7 40.6 L 27.5 40.6 L 27.1 41 L 12.3 41 L 16.2 36.7 L 17.2 36.1 L 17.6 35 L 26.8 25.8 Z "></path><path fill="rgb(207,227,234)" stroke="rgb(207,227,234)" stroke-width="0" opacity="1" d="M 118.8 39.8 Q 123.5 41.7 126.6 45.5 Q 130.5 50.3 133.2 56.4 L 134.8 63.5 L 135.5 72.5 L 135.2 72.5 L 132 64.6 L 130.1 56.8 L 124.6 45.7 Q 123.2 45.2 123.8 47.5 L 125 52.9 L 130.5 63.1 L 132.2 68 L 132.6 67.2 L 133.2 69.3 L 132.6 71.1 L 131.6 69.3 L 132 68.4 L 131.1 68.8 L 130.1 67.8 L 128.1 63.1 L 123.4 54.9 L 120.7 47.9 L 118.8 39.8 Z "></path><path fill="rgb(207,227,234)" stroke="rgb(207,227,234)" stroke-width="0" opacity="1" d="M 103.7 44.5 L 107.4 55.7 L 108.2 60.7 L 109 62.7 L 109.4 67 L 112.5 73.2 L 112.5 77.1 L 109.4 85.7 Q 109.6 88.1 108.6 89.3 L 108.6 92.8 L 107.6 94.5 L 105.1 86.9 Q 104.5 79.9 102.7 74 L 101.6 53.3 L 102 52.9 L 102.3 48.6 L 103.7 44.5 Z "></path><path fill="rgb(207,227,234)" stroke="rgb(207,227,234)" stroke-width="0" opacity="1" d="M 56.1 48.4 L 56.3 49 L 53.9 52.9 L 51.2 63.1 L 47.7 72.9 L 31.6 104.5 L 30.7 105.5 L 27.9 104.7 L 27.5 105.5 L 29.7 105.9 L 29.1 107 L 26.8 108.2 L 26.4 107 L 25.6 108.2 L 21.3 110.2 L 19.1 112.3 L 16.6 116.4 L 11.5 119.5 L 7.8 122.7 L 7.8 106.1 L 8.4 105.9 Q 14.7 101.2 19.9 95.5 Q 28.2 86.2 35.2 75.6 L 38.1 72.7 L 44.3 72.3 L 46.1 70.5 L 47.3 68.2 L 52 53.3 Q 53 50.4 55.3 48.8 L 56.1 48.4 Z "></path><path fill="rgb(207,227,234)" stroke="rgb(207,227,234)" stroke-width="0" opacity="1" d="M 82.8 52.3 Q 83.9 51.9 83.6 52.9 L 84.4 54.5 L 82 62.7 L 83.8 67.2 L 84.4 61.9 L 86.1 55.5 L 87.5 58.4 L 86.3 62.7 L 83.6 67.8 L 81.6 73.2 L 82.4 73.4 L 82.8 81.1 L 82.4 81.1 L 81.8 77.3 L 81.4 79.3 L 81.1 77 L 80.9 79.5 L 81.3 80.3 L 80.9 80.3 L 80.7 79.7 L 79.9 85.9 L 79.7 82.2 L 80.1 81.8 L 80.5 76 L 81.6 73.6 L 81.1 73.4 L 79.7 76.8 L 78.9 84.4 Q 77.9 83.9 78.1 85 L 78.1 85.7 L 77.9 86.3 L 77.7 84.2 L 78.5 81.1 L 78.3 80.5 L 78.9 80.7 Q 79.4 78.8 78.5 78.3 L 79.3 77.5 L 79.7 74.6 L 77.1 75 L 73.4 77.3 L 73.2 78.1 L 72.7 77.9 L 72.5 79.3 L 70.3 75.2 L 70.3 73.2 L 70.9 72.3 L 73.4 75.8 L 74.2 75.6 L 73.4 72.5 Q 72 71.7 71.9 69.7 L 72.5 68.4 L 74 70.7 Q 75.6 69.1 75.8 66.2 L 79.5 61.3 L 81.1 62.1 L 80.9 61.5 L 82.8 52.3 Z "></path><path fill="rgb(207,227,234)" stroke="rgb(207,227,234)" stroke-width="0" opacity="1" d="M 138.1 55.9 L 139.5 56.8 L 140.4 60.2 L 140.6 58.4 L 140.4 57.8 L 143.4 60 L 148 72.1 L 155.9 89.3 Q 160.9 98.9 167.8 106.6 L 185 118.8 L 193.4 123.2 L 193.4 137.3 L 193 137.7 L 193 143.6 L 192.4 144.1 L 190.8 144.1 L 186.5 142.6 L 167.4 124.6 L 166.6 125 L 160.7 119.9 L 158.4 119.5 L 157 120.5 Q 158.6 121.1 158.8 123 L 159.4 122.9 L 159 123.6 L 159.8 124 L 160 123.4 L 160.4 124.2 L 159.6 124.6 L 157.4 122.5 L 157.8 122.1 L 157.6 121.5 L 156.8 121.9 L 151.6 117 L 152.3 112.7 L 151.2 111.5 L 149.6 108 L 142.6 84.6 L 140.2 74 L 138.7 63.5 L 137.5 60 L 137.5 58 L 139.5 59.2 L 138.1 55.9 Z "></path><path fill="rgb(207,227,234)" stroke="rgb(207,227,234)" stroke-width="0" opacity="1" d="M 110.7 59.4 L 113.3 65.4 L 115.6 74 L 115.6 76.4 L 120.3 98.2 L 120.7 109.6 L 118.9 108.2 L 116.4 106.1 L 115.2 104.5 L 114.8 77.5 L 115 77 L 114.5 76.8 L 114.5 73.6 L 112.9 68.8 L 111.7 68.2 L 110.5 63.1 L 110.7 59.4 Z "></path><path fill="rgb(207,227,234)" stroke="rgb(207,227,234)" stroke-width="0" opacity="1" d="M 73.6 65.2 L 74.6 65.6 L 74.4 67.6 L 73.4 67.2 L 73 66.2 L 73.6 65.2 Z "></path><path fill="rgb(207,227,234)" stroke="rgb(207,227,234)" stroke-width="0" opacity="1" d="M 28.7 66.4 L 29.7 66.8 L 30.1 68.9 L 28.3 69.9 L 27 68.9 L 26.6 68.2 L 27.5 66.8 L 28.7 66.4 Z "></path><path fill="rgb(207,227,234)" stroke="rgb(207,227,234)" stroke-width="0" opacity="1" d="M 171.7 73.4 L 173.4 74.8 Q 176.3 79.7 177.7 86.1 L 179.5 88.7 Q 182.1 88 182.8 89.3 L 182 91.2 L 182 93.6 L 182.8 96.3 L 185 98.4 L 188.5 100.8 L 190 101.2 L 189.6 100.4 L 184.4 96.7 L 184 95.1 L 184.8 93.4 L 185.9 93.9 L 186.7 96.3 L 187.7 97.3 L 188.9 97.7 L 188.9 96.9 L 192.6 99 L 192.4 99.6 Q 193.6 99.4 193 102.1 L 192.4 102 L 191.8 102.1 L 193 102.7 L 193 115 L 192.4 115.2 L 188.9 112.1 L 188.3 112.3 L 191.8 105.3 Q 191.3 104.2 190.8 105.1 L 189.8 105.7 L 186.9 110.2 L 185.9 108.8 L 185.5 105.7 L 185 105.1 L 182 108.8 L 181.8 110.2 L 179.1 102.7 L 175.8 107.8 L 175 107.6 L 175 97.1 L 174.6 96.7 L 174.2 89.6 L 172.3 83.8 L 171.9 77.5 L 171.3 76.6 Q 169.2 78.1 169.9 82.6 L 170.3 84.8 L 169.7 84.8 L 161.5 92.6 L 160.2 90.4 L 161.9 88.3 L 165.2 85.4 Q 167 84.2 167.2 81.4 L 161.3 86.9 Q 161.6 87.8 160.7 87.5 L 159 88.9 L 171.7 73.4 Z "></path><path fill="rgb(207,227,234)" stroke="rgb(207,227,234)" stroke-width="0" opacity="1" d="M 94.7 75.4 L 94.9 83.8 L 94.5 84.2 L 94.5 101.2 Q 93.5 100.7 93.8 101.8 L 93.4 102.9 L 93.4 103.7 L 93 104.9 L 93 114.3 L 93.4 114.3 Q 92.8 112.1 93.8 111.5 L 93.4 111.1 L 93.4 107.6 L 93.8 107.6 Q 93.3 109.5 94.1 110 L 93.8 110.7 L 94.1 111.1 L 94.1 115 L 93.4 116.2 L 94.1 119.3 L 94.1 123 Q 92.8 123.6 93.4 121.7 L 93 121.7 Q 93.3 122.6 92.4 122.3 L 90.2 120.9 L 90.6 118.9 Q 89.4 117.6 89.8 114.8 Q 88.7 114.4 89.1 115.8 L 89.5 116.2 L 89.5 118.8 L 88.7 118.6 L 88.7 117.8 L 89.1 117 L 88.3 116.6 L 89.1 116.2 L 87.9 115.4 L 87.9 114.6 L 87.9 107.2 L 91.4 97.1 L 91 97.1 L 86.3 106.8 L 77 122.1 L 63.5 153.5 L 61.3 153.1 L 61.3 151.8 L 63.3 148.6 L 63.3 147.5 L 62.5 147.9 L 60.9 152.3 L 50.2 148.4 L 46.1 144.7 L 42.8 141 L 39.6 140.2 L 37.1 141.6 Q 36.7 142.9 37.7 142.6 L 38.5 143 L 40.4 141.8 Q 42.8 142.3 43.8 144.3 L 49 150 Q 52.2 152.5 57.2 153.1 L 61.5 155.5 L 71.3 157.4 L 86.9 162.5 L 91.6 163.7 L 93.6 163.7 L 97.9 165.2 L 104.7 166.6 L 101 167.6 L 100.4 166 L 99.6 166.2 L 100 167.4 Q 99.5 168.4 98 168 Q 98.5 166.2 97.5 165.6 L 97.3 166.2 L 97.7 167.4 L 97.3 168.4 L 96.3 168.8 L 95.5 166.8 L 94.3 169.1 Q 93.5 169.4 93.8 168.6 L 93.4 166.8 L 94.1 166.6 L 93.4 166.4 L 93.4 164.1 L 92.6 164.1 Q 93.4 166 93 169.5 Q 91.2 170.2 91.8 168.2 L 91.4 167.8 L 91.2 163.7 L 90.6 165 L 91 165.8 L 89.6 166.8 L 89.1 164.6 Q 89.9 164.2 88.9 163.7 L 88.3 163.9 L 88.7 164.3 L 88.7 166.8 L 87.5 166.2 L 87.1 163.1 L 86.5 162.5 L 86.3 163.5 L 86.7 163.9 L 86.7 167.2 L 88.7 167.6 L 88.7 171.1 L 87.5 171.1 L 87.5 168.6 L 87.9 168.2 L 86.7 168 L 86.7 171.3 L 86.1 171.9 L 79.3 173.4 Q 78.5 172.1 78.9 168.9 L 77.5 166.4 L 77.3 168.6 L 77.7 169.5 L 75.8 169.5 L 75.8 167.8 Q 76.7 167.3 75.6 166.8 L 72.7 166 L 72.3 169.5 L 73.6 169.9 L 74.4 169.9 Q 75.4 169.6 75 170.9 L 74.6 172.5 L 75 173.4 L 74.2 173.6 L 75.4 174.4 L 70.5 175.4 Q 66 173.6 63.7 169.7 L 61.5 167.2 L 60.4 167.2 L 54.5 171.5 L 51.8 172.7 L 42.2 161.9 L 42.2 161.3 L 41.4 161.1 L 41.6 160.5 Q 40.3 161 40.6 160 L 39.1 158.8 L 41 163.1 L 41 172.5 L 40 174.2 L 31.3 178.7 L 33.8 178.9 L 45.9 175.4 L 52.9 177 L 68.2 177 L 68.6 177.3 L 73.2 177.3 L 78.3 178.5 L 83 180.5 L 84.6 180.5 L 90.8 178.5 L 91.6 178.9 L 92.6 178.3 L 91.4 178.1 Q 90.9 177 92.4 177.3 L 98.2 175.8 L 103.7 175.8 L 108 177 L 111.1 178.5 L 111.3 177.7 L 136.1 172.3 L 147.9 168.8 L 150.4 167.6 Q 150.8 166.3 149.2 166.8 L 149 167.6 L 148.2 167.2 L 146.7 168 L 144.7 168 L 138.9 169.5 L 130.3 170.3 L 121.7 171.9 L 118.9 171.9 L 114.6 173 L 112.3 173 L 102.5 175 L 97.9 175 L 91 177 Q 91.5 178.3 89.6 177.7 L 85.7 179.3 L 83 179.3 L 78.7 177.7 L 72.3 176.8 L 95.5 172.7 L 112.1 168.2 L 110.5 167.8 L 112.5 167.4 Q 112 166.3 111.5 167.2 L 107 167 Q 110.9 167.1 113.5 166 Q 114 166.9 115.8 166.4 L 130.3 161.3 L 141.6 155.9 L 152.5 149.2 L 155.9 145.9 L 156.8 144.1 L 177.9 143.8 L 185 146.1 L 189.3 146.9 L 191 147.9 Q 190.7 148.9 192 148.4 Q 193.8 150.3 193 154.9 L 189.6 158.6 L 174.2 172.9 L 173.2 174.2 L 172.1 174.6 L 166.6 172.3 L 165.4 172.3 L 151.4 167.2 L 151 168 L 154.1 169.5 L 169.7 174.6 L 171.1 175.6 L 168.6 177 L 152.1 180.9 Q 149.5 181.7 148 183.8 L 147.5 184.8 L 146.3 184 L 145.7 184.2 L 145.1 183.2 Q 144.2 182.9 144.5 183.8 L 147.3 188.5 L 147.3 192 L 145.1 193.4 L 141.6 193.8 L 139.6 193.4 L 134 187.7 L 128.7 181.3 Q 126.4 180.9 125.6 182 L 117.8 182.4 L 117.2 183 L 118.8 185.7 L 118.2 185.5 L 112.3 183.6 L 107.2 183.2 L 100.2 181.3 L 98.2 181.3 L 96.7 180.5 L 96.7 180.9 L 97.7 181.4 L 95.5 181.6 L 89.3 183.6 L 87.7 183.6 L 87.1 184.2 L 88.9 184.4 L 96.7 182 L 99.8 182 L 104.9 184.4 L 106.6 186.1 L 107 187.3 L 107 193.4 L 106.1 193.8 L 97.1 193.8 L 94.1 192 Q 94.5 191 93.2 191.4 L 92.8 192.6 L 92.2 191.4 L 93 191.2 L 91.8 190.6 L 91.6 191.4 L 90.6 191.2 L 90 190.2 L 89.5 190.4 Q 89.9 189 88.5 189.5 L 84.6 185.2 L 84.4 185.7 L 85.2 187.1 Q 86.3 186.7 85.9 187.9 Q 84.8 188.3 85.2 187.1 L 83.6 187.1 L 83.6 185.9 L 82.4 185.9 Q 82.9 187 81.8 186.7 L 81.4 186.3 L 74.4 185.5 L 72.5 184.4 L 62.3 181.3 L 54.9 183.2 L 50.2 183.2 L 45.5 181.6 L 42.4 181.6 L 40.8 182 L 36.9 180.5 L 32.6 180.5 L 31.8 180.1 L 24.6 173.2 L 22.3 170.5 L 34 159.6 L 33.8 159 L 24 168 L 20.9 169.5 L 7.8 156.1 L 7.8 151.6 L 11.9 150.8 Q 15.2 148.7 19.5 148 L 19.7 148.8 L 20.9 148.4 L 25.6 147.7 L 27.9 146.5 L 41.2 146.1 L 42 146.5 L 41.6 145.7 L 24.4 145.7 L 22.9 144.9 L 22.1 144.9 Q 18.3 143.5 15.8 140.6 L 12.9 140.4 L 16.6 140.2 L 18.2 140.6 Q 53.1 120.5 80.5 92.8 Q 88.6 85 94.7 75.4 Z M 89 108 L 89 112 L 88 113 L 89 113 L 89 113 L 89 108 Z M 72 127 L 71 128 L 71 129 L 72 128 L 72 127 Z M 71 129 L 70 131 L 70 132 L 71 130 L 71 129 Z M 70 132 L 69 134 L 69 135 L 70 133 L 70 132 Z M 69 135 L 67 137 L 67 138 L 69 136 L 69 135 Z M 66 141 L 64 144 L 65 145 L 66 142 L 66 141 Z M 42 146 L 45 149 L 45 149 L 42 146 Z M 49 152 L 51 154 L 56 155 L 57 155 L 58 155 Q 55 154 51 153 L 49 152 Z M 158 163 L 155 166 L 159 168 L 159 167 L 158 166 L 158 166 Q 160 166 159 164 L 157 165 L 157 165 L 158 164 L 158 163 L 158 163 Z M 57 179 L 57 180 L 60 180 L 61 180 L 57 179 Z M 88 187 Q 88 188 89 188 L 89 189 Q 90 190 90 189 L 90 188 Q 89 188 89 187 L 88 187 Z "></path><path fill="rgb(207,227,234)" stroke="rgb(207,227,234)" stroke-width="0" opacity="1" d="M 63.1 76.2 L 62.9 76.8 Q 62 80.2 60 82.4 L 59.4 82.2 L 58.6 83.4 L 56.3 85.2 L 63.1 76.2 Z "></path><path fill="rgb(207,227,234)" stroke="rgb(207,227,234)" stroke-width="0" opacity="1" d="M 68.9 76.6 L 70.1 78.5 Q 71 78.2 70.7 79.1 L 71.3 80.1 L 70.7 80.3 Q 72.1 80.5 71.9 82.2 L 70.1 84.4 L 68.4 79.5 L 68.4 77.1 L 68.9 76.6 Z "></path><path fill="rgb(207,227,234)" stroke="rgb(207,227,234)" stroke-width="0" opacity="1" d="M 152.9 77 L 159.8 77.9 L 155.7 82.8 L 154.3 81.8 L 152.3 77.5 L 152.9 77 Z "></path><path fill="rgb(207,227,234)" stroke="rgb(207,227,234)" stroke-width="0" opacity="1" d="M 12.3 78.5 L 14.3 78.5 L 16.6 80.5 L 20.1 80.5 L 20.5 80.1 L 25 79.9 L 21.1 79.5 L 25.2 79.3 L 26.8 79.7 L 28.5 81.4 L 25.6 84.8 L 24 85.2 L 13.1 85.2 L 13.1 84.4 L 11.3 85.2 L 11.1 84.4 L 8.2 84.4 Q 8.6 85.5 7.4 85.2 L 7 80.9 L 9.2 81.3 L 12.3 78.5 Z "></path><path fill="rgb(207,227,234)" stroke="rgb(207,227,234)" stroke-width="0" opacity="1" d="M 97.5 80.1 L 102.7 86.9 L 108.6 99.8 L 116.2 108.2 L 121.5 113.1 L 125.8 120.9 L 128.1 127.1 L 129.1 128.1 Q 131.6 128 132.4 129.5 L 134.4 137.7 L 138.7 149.8 L 137.9 150.2 L 137.7 149.2 L 136.5 150.8 L 129.5 151.2 Q 129.2 152.6 127.1 152.3 L 123.2 151.6 L 118.4 148.6 L 117.2 146.3 L 114.8 138.1 L 110.5 130.1 L 107.4 128.9 Q 107.8 127.7 106.6 128.1 L 106.6 127.1 L 103.9 124.8 L 103.7 124.2 L 103.1 124.4 L 102.1 123 L 101.4 123 L 100 122.7 L 99.4 121.5 L 98.6 123 L 96.5 118.6 L 96.5 115.4 L 97.3 112.3 L 97.5 80.1 Z "></path><path fill="rgb(207,227,234)" stroke="rgb(207,227,234)" stroke-width="0" opacity="1" d="M 113.1 81.3 L 113.3 85.7 L 112.9 86.1 L 112.9 89.3 L 113.3 89.6 L 113.3 93.2 L 113.3 95.5 L 113.1 102.7 Q 110.8 101.7 110.2 99 L 110.2 90.4 L 111.7 83.8 L 113.1 81.3 Z "></path><path fill="rgb(207,227,234)" stroke="rgb(207,227,234)" stroke-width="0" opacity="1" d="M 67 81.6 L 68.8 85 L 68.4 85 L 67.8 83.6 L 67 84 L 66.4 82.6 L 67 81.6 Z "></path><path fill="rgb(207,227,234)" stroke="rgb(207,227,234)" stroke-width="0" opacity="1" d="M 21.7 90.2 L 20.3 92 L 11.1 101.6 L 8 103.9 L 7.8 99 L 15 93.8 L 21.7 90.2 Z "></path><path fill="rgb(207,227,234)" stroke="rgb(207,227,234)" stroke-width="0" opacity="1" d="M 65.8 91 L 65.6 91.6 L 67.2 96.7 L 66 97.5 L 66 98.2 L 62.5 103.9 L 61.3 104.5 L 59.2 107 L 59 106.4 L 62.1 97.5 L 64.5 92.6 Q 65.5 93 65.2 92 L 65 91.4 L 65.8 91 Z "></path><path fill="rgb(207,227,234)" stroke="rgb(207,227,234)" stroke-width="0" opacity="1" d="M 172.9 91 L 173.4 94.3 L 173.4 98.6 L 173.8 99 L 173.8 103.3 L 173.2 105.5 L 171.7 104.7 Q 170.7 105 171.1 103.7 L 170.7 103.7 L 170.5 104.3 L 169.1 101.8 L 169.5 101 L 169.1 100.2 L 169.7 99.2 L 170.5 103.5 L 170.7 101.4 L 169.9 98.2 L 172.9 91 Z "></path><path fill="rgb(207,227,234)" stroke="rgb(207,227,234)" stroke-width="0" opacity="1" d="M 0.2 93.4 L 0.4 104.5 L 0 104.5 L 0.2 93.4 Z "></path><path fill="rgb(207,227,234)" stroke="rgb(207,227,234)" stroke-width="0" opacity="1" d="M 38.1 107.8 L 37.9 108.4 L 34.2 116.8 L 34 115.8 L 35.2 113.9 L 35 112.5 Q 35.8 112.8 35.5 111.9 Q 34.7 111.4 35.7 110.9 L 36.7 110.4 L 38.1 107.8 Z "></path><path fill="rgb(207,227,234)" stroke="rgb(207,227,234)" stroke-width="0" opacity="1" d="M 28.7 108.2 L 28.9 108.8 L 26.4 113.3 L 25.6 112.9 Q 24.3 113.6 25.8 114.3 L 25 116 L 24.2 116.2 L 24.4 116.8 L 23 116.6 L 23.4 117.4 L 23 118.2 L 23 118.9 L 21.7 121.5 L 20.5 121.1 L 19.3 122.3 L 16.6 123.4 L 16.2 122.3 L 15.6 123.6 Q 15.9 124.5 15 124.2 L 13.7 126.4 L 13.9 127 Q 12.8 126.5 13.7 126 Q 16.1 119.2 19.9 114.1 Q 21 114.5 20.7 113.5 L 20.3 113.1 L 21.7 111.7 L 23.4 111.3 L 24.4 109.8 L 25.2 110.2 L 28.7 108.2 Z "></path><path fill="rgb(207,227,234)" stroke="rgb(207,227,234)" stroke-width="0" opacity="1" d="M 13.5 119.5 Q 14.9 119 14.5 120.5 L 13.3 122.7 Q 11.8 123 11.3 122.1 Q 11.1 120.1 12.7 119.9 L 13.5 119.5 Z "></path><path fill="rgb(207,227,234)" stroke="rgb(207,227,234)" stroke-width="0" opacity="1" d="M 9.2 123 L 8.6 124 L 9 124.8 L 8.2 124.8 L 8 126.2 L 7.8 124.4 L 9.2 123 Z "></path><path fill="rgb(207,227,234)" stroke="rgb(207,227,234)" stroke-width="0" opacity="1" d="M 34.2 123.8 Q 35.9 123.2 35.5 124.4 L 34.4 126.6 L 31.8 128.5 L 31.6 127.9 L 33 124.2 Q 33.6 125.2 34.2 123.8 Z "></path><path fill="rgb(207,227,234)" stroke="rgb(207,227,234)" stroke-width="0" opacity="1" d="M 73.4 166.8 L 75 167.2 L 75 169.1 L 73.6 169.1 L 73 167.8 L 73.4 166.8 Z "></path><path fill="rgb(207,227,234)" stroke="rgb(207,227,234)" stroke-width="0" opacity="1" d="M 89.1 167.2 L 91 167.2 L 91 168.6 L 91.4 169.9 L 89.5 169.9 L 89.5 168.6 L 89.1 167.2 Z "></path><path fill="rgb(207,227,234)" stroke="rgb(207,227,234)" stroke-width="0" opacity="1" d="M 75.8 170.3 Q 78.7 169.2 77.7 172.5 L 75.8 170.9 L 75.8 170.3 Z "></path><path fill="rgb(207,227,234)" stroke="rgb(207,227,234)" stroke-width="0" opacity="1" d="M 136.5 170.3 L 137.5 170.5 L 120.1 174.6 L 112.7 177 L 109.6 177 L 104.7 175.6 L 108.4 174.6 L 113.9 174.2 L 118.6 173 L 120.9 173 L 123.2 172.3 L 125.6 172.3 L 136.5 170.3 Z "></path><path fill="rgb(207,227,234)" stroke="rgb(207,227,234)" stroke-width="0" opacity="1" d="M 32.6 181.3 L 33.4 181.6 L 37.7 181.6 L 40.8 182.8 L 43.6 182.8 L 45.1 182.4 L 51.6 184.2 L 46.3 186.3 L 39.3 187.5 Q 35 185 32.6 181.3 Z "></path><path fill="rgb(207,227,234)" stroke="rgb(207,227,234)" stroke-width="0" opacity="1" d="M 60.7 182.4 Q 63.7 182 65 183.2 L 69.1 186.9 L 69.5 193.4 L 68.6 193.8 L 50.6 193.8 L 49.2 192.8 L 46.3 189.1 L 44.5 188.1 Q 51.8 184.4 60.7 182.4 Z "></path><path fill="rgb(207,227,234)" stroke="rgb(207,227,234)" stroke-width="0" opacity="1" d="M 126.8 182.8 Q 128.6 182.9 129.3 184.2 L 130.9 186.7 L 127.1 187.1 Q 124.6 185.9 124.2 183.2 L 126.8 182.8 Z "></path><path fill="rgb(207,227,234)" stroke="rgb(207,227,234)" stroke-width="0" opacity="1" d="M 118.4 183.6 L 122.1 184 L 125.4 187.3 Q 125.7 188.3 124.4 187.9 L 123.6 187.9 L 122.1 188.3 L 119.5 186.1 L 118.4 183.6 Z "></path><path fill="rgb(207,227,234)" stroke="rgb(207,227,234)" stroke-width="0" opacity="1" d="M 128.3 187.5 Q 132.3 186.6 133.2 188.9 L 136.1 192.6 L 137.1 193.2 L 136.5 193.4 L 136.1 193 L 132.6 193 L 130.1 190.8 L 129.3 189.1 L 127.7 188.1 L 128.3 187.5 Z "></path><path fill="rgb(207,227,234)" stroke="rgb(207,227,234)" stroke-width="0" opacity="1" d="M 41.6 188.3 L 43.9 188.7 L 47.3 191.6 L 48 192.8 L 45.1 193 L 40.6 188.9 L 41.6 188.3 Z "></path><path fill="rgb(207,227,234)" stroke="rgb(207,227,234)" stroke-width="0" opacity="1" d="M 125.6 188.7 Q 127.1 188.5 127.3 189.6 L 128.9 192 L 128.7 192.6 Q 130 192.1 129.7 193.2 L 129.1 193 Q 125.7 193.7 125 191.6 L 126.6 192.4 L 126.2 191.6 L 127.1 191.4 Q 127.6 192.3 128.1 191.2 L 124.4 191 L 122.7 189.3 L 125.6 188.7 Z "></path><path fill="rgb(233,130,94)" stroke="rgb(233,130,94)" stroke-width="0" opacity="1" d="M 145.1 7 L 153.9 7.2 L 145.1 7.4 L 145.1 7 Z "></path><path fill="rgb(233,130,94)" stroke="rgb(233,130,94)" stroke-width="0" opacity="1" d="M 41.2 7.4 L 66.4 7.6 L 41.2 7.8 L 41.2 7.4 Z "></path><path fill="rgb(233,130,94)" stroke="rgb(233,130,94)" stroke-width="0" opacity="1" d="M 159.6 8.6 L 165.4 14.8 L 159.6 8.6 Z "></path><path fill="rgb(233,130,94)" stroke="rgb(233,130,94)" stroke-width="0" opacity="1" d="M 42.4 9.4 L 155.3 9.4 L 168.8 21.7 L 170.5 23.8 L 190.2 43.2 L 191.8 45.5 L 191.8 50.6 L 192.2 51 L 192.2 62.7 L 192.6 63.1 L 192.6 76.8 L 193 77.1 L 193.4 99.2 L 192.4 98.8 L 191.8 99 Q 192.7 98.5 191.6 98 L 190 97.7 L 189.5 97.9 L 189.6 97.3 L 187.9 96.3 Q 188.1 90.8 185 88.7 L 180.3 88.3 L 178.9 86.9 L 175.8 76.4 Q 174.5 73.3 172.1 71.5 L 169.3 70.7 L 167 71.9 L 158.8 79.3 L 159.6 77.7 L 152.9 77 L 152.3 77.1 L 144.5 59.2 L 141.6 55.9 L 138.1 53.9 L 133.8 53.5 L 133.2 52.9 Q 129.8 45.8 124 41 L 115.2 35.5 L 111.3 28.3 L 108.8 25 L 103.5 21.7 L 98.6 15.6 Q 97.5 14 94.3 14.5 L 85.9 22.5 L 81.6 27.1 L 79.7 32.6 L 78.3 34.8 L 73.8 37.1 L 70.9 41.4 L 64.6 41.8 L 64.3 41.4 L 61.1 41.4 Q 57.7 45.4 53.1 47.7 L 50.8 51.4 L 45.3 68.6 L 43.6 71.1 L 37.7 71.1 L 35.2 72.9 L 28.7 81.3 L 26.8 79.7 L 21.3 79.3 L 21.3 79.7 L 25 79.9 L 16.6 80.5 L 14.3 78.5 L 12.3 78.5 L 8.8 81.3 L 7 80.9 L 7 45.9 L 11.9 41 L 27.1 41 L 27.5 40.6 L 30.7 40.6 L 32.2 41 L 33.8 40.6 L 35 41 L 35.4 40.6 L 60.7 40.6 Q 61.2 39.7 63.1 40.2 L 64.1 39.3 L 60.4 37.1 L 53.7 35.5 L 50.2 33.6 L 45.7 33.6 L 45.1 32.4 Q 43.9 30.7 40.4 31.3 L 38.3 32 L 36.1 28.5 Q 33.3 25.4 27 26.2 L 27.3 24.8 L 41.6 9.8 L 42.4 9.4 Z M 142 18 L 139 19 Q 138 20 138 22 L 134 23 L 132 25 Q 132 26 129 25 L 128 26 Q 127 26 127 27 L 123 29 Q 121 29 122 30 L 165 30 L 165 30 Q 163 28 159 28 L 155 26 L 153 26 Q 152 24 150 25 L 150 22 L 148 20 L 145 18 L 142 18 Z M 29 66 L 28 67 L 27 68 L 27 69 L 28 70 L 30 69 L 30 67 L 29 66 Z "></path><path fill="rgb(233,130,94)" stroke="rgb(233,130,94)" stroke-width="0" opacity="1" d="M 36.5 12.1 L 28.7 20.3 L 33.6 15 L 33.6 14.5 L 34.4 14.5 L 34.4 13.7 L 35.2 13.7 Q 34.7 12.6 35.7 12.9 L 36.5 12.1 Z "></path><path fill="rgb(233,130,94)" stroke="rgb(233,130,94)" stroke-width="0" opacity="1" d="M 27.1 21.9 L 19.7 29.7 L 26.2 22.9 Q 25.9 22 26.8 22.3 L 27.1 21.9 Z "></path><path fill="rgb(233,130,94)" stroke="rgb(233,130,94)" stroke-width="0" opacity="1" d="M 89.6 25 L 87.7 27.3 L 89.6 25 Z "></path><path fill="rgb(233,130,94)" stroke="rgb(233,130,94)" stroke-width="0" opacity="1" d="M 25.6 26.6 L 23.6 28.9 L 25.6 26.6 Z "></path><path fill="rgb(233,130,94)" stroke="rgb(233,130,94)" stroke-width="0" opacity="1" d="M 18.8 30.1 L 19.5 30.3 L 9 40.4 L 11.9 37.1 L 18.8 30.7 L 18.8 30.1 Z "></path><path fill="rgb(233,130,94)" stroke="rgb(233,130,94)" stroke-width="0" opacity="1" d="M 75.2 37.1 L 73.6 39.1 L 75.2 37.1 Z "></path><path fill="rgb(233,130,94)" stroke="rgb(233,130,94)" stroke-width="0" opacity="1" d="M 199.4 46.9 L 199.6 53.3 L 199.2 53.3 L 199.4 46.9 Z "></path><path fill="rgb(233,130,94)" stroke="rgb(233,130,94)" stroke-width="0" opacity="1" d="M 199.4 53.9 L 200 54.9 L 199.6 55.3 L 199.6 59.2 L 200 59.6 L 200 63.9 L 199.6 65.4 L 200 66.6 L 199.6 68.2 Q 200.5 68.7 199.4 69.1 L 199.2 68.2 L 199.4 53.9 Z "></path><path fill="rgb(233,130,94)" stroke="rgb(233,130,94)" stroke-width="0" opacity="1" d="M 137.7 57.4 L 139.3 59.4 L 137.7 57.4 Z "></path><path fill="rgb(233,130,94)" stroke="rgb(233,130,94)" stroke-width="0" opacity="1" d="M 195.9 63.7 L 196.1 67.4 L 195.7 67.4 L 195.9 63.7 Z "></path><path fill="rgb(233,130,94)" stroke="rgb(233,130,94)" stroke-width="0" opacity="1" d="M 37.7 72.7 L 36.1 74.6 L 37.7 72.7 Z "></path><path fill="rgb(233,130,94)" stroke="rgb(233,130,94)" stroke-width="0" opacity="1" d="M 81.8 73 L 82.8 73.6 L 82.6 79.3 L 82.4 73.4 L 81.1 74.2 L 81.8 73 Z "></path><path fill="rgb(233,130,94)" stroke="rgb(233,130,94)" stroke-width="0" opacity="1" d="M 199.4 75.4 L 200 76.8 L 199.8 86.7 L 199.2 86.1 L 199.2 76.4 L 199.4 75.4 Z "></path><path fill="rgb(233,130,94)" stroke="rgb(233,130,94)" stroke-width="0" opacity="1" d="M 81.1 77 L 81.4 79.3 L 81.8 77.3 L 82.8 81.4 L 82.8 82.2 Q 83.5 86 81.1 86.7 L 79.3 87.5 L 79.5 84.8 L 79.9 85.9 L 81.1 77 Z "></path><path fill="rgb(233,130,94)" stroke="rgb(233,130,94)" stroke-width="0" opacity="1" d="M 86.1 81.6 L 84.6 83.6 L 86.1 81.6 Z "></path><path fill="rgb(233,130,94)" stroke="rgb(233,130,94)" stroke-width="0" opacity="1" d="M 26.8 83.6 L 25 85.7 L 23.2 87.9 L 7 96.9 L 7.2 84 L 7.4 85.2 Q 8.7 85.4 8.4 84.4 L 11.3 84.4 Q 10.9 85.4 11.9 85.2 L 11.9 84.4 L 12.7 84.4 L 13.3 84.6 L 13.1 85.2 L 24 85.2 L 25.6 84.8 L 26.8 83.6 Z "></path><path fill="rgb(233,130,94)" stroke="rgb(233,130,94)" stroke-width="0" opacity="1" d="M 0.2 86.3 L 0.4 93.2 L 0 93.2 L 0.2 86.3 Z "></path><path fill="rgb(233,130,94)" stroke="rgb(233,130,94)" stroke-width="0" opacity="1" d="M 195.5 89.5 L 195.7 96.3 L 195.3 96.3 L 195.5 89.5 Z "></path><path fill="rgb(233,130,94)" stroke="rgb(233,130,94)" stroke-width="0" opacity="1" d="M 80.3 92.6 L 75.6 97.7 L 80.3 92.6 Z "></path><path fill="rgb(233,130,94)" stroke="rgb(233,130,94)" stroke-width="0" opacity="1" d="M 108.4 93 L 108.6 96.7 L 108.2 96.7 L 107.4 94.7 L 108.4 93 Z "></path><path fill="rgb(233,130,94)" stroke="rgb(233,130,94)" stroke-width="0" opacity="1" d="M 19.7 95.3 L 14.6 100.8 L 19.7 95.3 Z "></path><path fill="rgb(233,130,94)" stroke="rgb(233,130,94)" stroke-width="0" opacity="1" d="M 70.5 102 L 68.9 103.9 L 70.5 102 Z "></path><path fill="rgb(233,130,94)" stroke="rgb(233,130,94)" stroke-width="0" opacity="1" d="M 0.2 105.9 L 0.4 113.1 L 0 113.1 L 0.2 105.9 Z "></path><path fill="rgb(233,130,94)" stroke="rgb(233,130,94)" stroke-width="0" opacity="1" d="M 114.3 105.9 L 116.2 108.2 L 114.3 105.9 Z "></path><path fill="rgb(233,130,94)" stroke="rgb(233,130,94)" stroke-width="0" opacity="1" d="M 199.4 111.7 L 199.6 123.2 L 199.2 123.2 L 199.4 111.7 Z "></path><path fill="rgb(233,130,94)" stroke="rgb(233,130,94)" stroke-width="0" opacity="1" d="M 0.2 116 L 0.4 122.1 L 0 122.1 L 0.2 116 Z "></path><path fill="rgb(233,130,94)" stroke="rgb(233,130,94)" stroke-width="0" opacity="1" d="M 199.4 126.6 L 199.6 144.7 L 199.2 144.7 L 199.4 126.6 Z "></path><path fill="rgb(233,130,94)" stroke="rgb(233,130,94)" stroke-width="0" opacity="1" d="M 163.1 143.8 L 167.6 143.9 L 163.1 144.1 L 163.1 143.8 Z "></path><path fill="rgb(233,130,94)" stroke="rgb(233,130,94)" stroke-width="0" opacity="1" d="M 1.8 147.3 L 2 153.3 L 1.6 153.3 L 1.8 147.3 Z "></path><path fill="rgb(233,130,94)" stroke="rgb(233,130,94)" stroke-width="0" opacity="1" d="M 195.5 147.7 L 195.7 151.4 L 195.3 151.4 L 195.5 147.7 Z "></path><path fill="rgb(233,130,94)" stroke="rgb(233,130,94)" stroke-width="0" opacity="1" d="M 6.4 157.8 L 11.5 163.3 L 6.4 157.8 Z "></path><path fill="rgb(233,130,94)" stroke="rgb(233,130,94)" stroke-width="0" opacity="1" d="M 31.4 160.9 L 29.9 162.9 L 31.4 160.9 Z "></path><path fill="rgb(233,130,94)" stroke="rgb(233,130,94)" stroke-width="0" opacity="1" d="M 186.1 164.8 L 183.8 167.6 L 186.1 164.8 Z "></path><path fill="rgb(233,130,94)" stroke="rgb(233,130,94)" stroke-width="0" opacity="1" d="M 14.6 166.4 L 21.7 173.8 L 14.6 166.4 Z "></path><path fill="rgb(233,130,94)" stroke="rgb(233,130,94)" stroke-width="0" opacity="1" d="M 106.8 166.4 L 110.9 166.6 L 106.4 167.2 L 106.8 166.4 Z "></path><path fill="rgb(233,130,94)" stroke="rgb(233,130,94)" stroke-width="0" opacity="1" d="M 23.2 175 L 27.5 179.7 L 23.2 175 Z "></path><path fill="rgb(233,130,94)" stroke="rgb(233,130,94)" stroke-width="0" opacity="1" d="M 68.6 177 L 74 177 L 74.2 177.7 L 73.2 177.3 L 68.6 177.3 L 68.6 177 Z "></path><path fill="rgb(233,130,94)" stroke="rgb(233,130,94)" stroke-width="0" opacity="1" d="M 33 185.2 L 35 187.5 L 33 185.2 Z "></path><path fill="rgb(233,130,94)" stroke="rgb(233,130,94)" stroke-width="0" opacity="1" d="M 91.6 189.5 L 92 190.6 L 93.4 191.6 L 92.8 191.4 L 91.2 192.6 L 91.4 192 L 91 191.2 L 91.8 191.2 L 91 190 L 91.6 189.5 Z "></path><path fill="rgb(233,130,94)" stroke="rgb(233,130,94)" stroke-width="0" opacity="1" d="M 107.2 189.5 L 107.4 192.8 L 107 192.8 L 107.2 189.5 Z "></path><path fill="rgb(233,130,94)" stroke="rgb(233,130,94)" stroke-width="0" opacity="1" d="M 135.7 189.5 L 138.5 192.6 L 135.7 189.5 Z "></path><path fill="rgb(233,130,94)" stroke="rgb(233,130,94)" stroke-width="0" opacity="1" d="M 39.3 191 L 42 194.1 L 39.3 191 Z "></path><path fill="rgb(233,130,94)" stroke="rgb(233,130,94)" stroke-width="0" opacity="1" d="M 43.2 191 L 44.7 193 L 43.2 191 Z "></path><path fill="rgb(233,130,94)" stroke="rgb(233,130,94)" stroke-width="0" opacity="1" d="M 124.8 191 L 128.1 191.2 Q 127.6 192.3 127.1 191.4 L 126.2 191.6 L 126.6 192.4 L 125.8 192.8 Q 126.9 192.1 125.2 191.4 L 124.8 191 Z "></path><path fill="rgb(233,130,94)" stroke="rgb(233,130,94)" stroke-width="0" opacity="1" d="M 135 191 L 136.1 192.6 L 135 191.4 L 134.6 191.8 L 133.2 191.6 L 135 191 Z "></path><path fill="rgb(233,130,94)" stroke="rgb(233,130,94)" stroke-width="0" opacity="1" d="M 43.9 194.9 L 97.7 195.1 L 43.9 195.3 L 43.9 194.9 Z "></path><path fill="rgb(233,130,94)" stroke="rgb(233,130,94)" stroke-width="0" opacity="1" d="M 106.4 194.9 L 116.8 195.1 L 106.4 195.3 L 106.4 194.9 Z "></path></svg>