<?xml version="1.0" standalone="no"?>
<!DOCTYPE svg PUBLIC "-//W3C//DTD SVG 20010904//EN"
 "http://www.w3.org/TR/2001/REC-SVG-20010904/DTD/svg10.dtd">
<svg version="1.0" xmlns="http://www.w3.org/2000/svg"
 width="700.000000pt" height="700.000000pt" viewBox="0 0 700.000000 700.000000"
 preserveAspectRatio="xMidYMid meet">
<metadata>
Created by potrace 1.14, written by Peter Selinger 2001-2017
</metadata>
<g transform="translate(0.000000,700.000000) scale(0.100000,-0.100000)"
fill="#000000" stroke="none">
<path d="M3335 6994 c-783 -48 -1464 -310 -2054 -791 -136 -111 -373 -348
-484 -484 -379 -465 -633 -1012 -736 -1585 -41 -227 -54 -380 -54 -634 0 -254
13 -407 54 -634 192 -1067 894 -2002 1869 -2489 394 -197 770 -307 1230 -358
153 -17 717 -17 870 0 907 102 1688 530 2252 1235 387 483 627 1072 699 1716
17 153 17 717 0 870 -81 721 -336 1336 -778 1879 -111 136 -348 373 -484 484
-532 434 -1145 692 -1829 771 -128 15 -448 26 -555 20z m525 -549 c243 -31
505 -97 717 -181 1023 -403 1726 -1309 1869 -2411 23 -174 23 -532 0 -706 -32
-251 -98 -510 -182 -724 -370 -939 -1176 -1620 -2160 -1826 -216 -46 -361 -60
-604 -60 -488 0 -906 99 -1340 319 -886 447 -1476 1289 -1606 2291 -23 174
-23 532 0 706 47 360 141 670 302 987 476 943 1412 1556 2479 1624 107 7 407
-4 525 -19z"/>
<path d="M2404 5244 c-58 -28 -247 -178 -347 -273 -502 -482 -746 -1135 -662
-1774 83 -635 494 -1141 1084 -1337 499 -167 1073 -118 1588 134 161 79 207
117 219 182 5 27 1 50 -14 86 -13 30 -16 48 -9 45 152 -65 273 -99 413 -118
116 -15 402 -7 514 16 229 45 489 147 573 224 102 94 3 295 -137 278 -23 -3
-48 -7 -56 -11 -11 -4 -64 79 -214 342 -110 191 -345 600 -523 910 -178 310
-323 567 -323 571 0 4 9 16 21 27 48 44 63 121 35 187 -18 43 -78 95 -119 102
-61 12 -164 -49 -307 -181 -434 -398 -641 -955 -544 -1463 7 -41 12 -76 10
-78 -3 -3 -395 678 -976 1695 l-77 133 33 35 c120 126 -28 344 -182 268z
m1665 -2822 l54 -37 -29 -12 c-52 -22 -60 -17 -108 68 l-45 80 37 -31 c20 -17
61 -47 91 -68z"/>
</g>
</svg>
